<?xml version="1.0" encoding="utf-8" standalone="no"?>
<!DOCTYPE svg PUBLIC "-//W3C//DTD SVG 1.1//EN"
  "http://www.w3.org/Graphics/SVG/1.1/DTD/svg11.dtd">
<svg xmlns:xlink="http://www.w3.org/1999/xlink" width="739.8pt" height="291.6pt" viewBox="0 0 739.8 291.6" xmlns="http://www.w3.org/2000/svg" version="1.1">
 <metadata>
  <rdf:RDF xmlns:dc="http://purl.org/dc/elements/1.1/" xmlns:cc="http://creativecommons.org/ns#" xmlns:rdf="http://www.w3.org/1999/02/22-rdf-syntax-ns#">
   <cc:Work>
    <dc:type rdf:resource="http://purl.org/dc/dcmitype/StillImage"/>
    <dc:date>2026-04-28T02:53:54.905877</dc:date>
    <dc:format>image/svg+xml</dc:format>
    <dc:creator>
     <cc:Agent>
      <dc:title>Matplotlib v3.10.9, https://matplotlib.org/</dc:title>
     </cc:Agent>
    </dc:creator>
   </cc:Work>
  </rdf:RDF>
 </metadata>
 <defs>
  <style type="text/css">*{stroke-linejoin: round; stroke-linecap: butt}</style>
 </defs>
 <g id="figure_1">
  <g id="patch_1">
   <path d="M 0 291.6
L 739.8 291.6
L 739.8 0
L 0 0
z
" style="fill: #f8f6f1"/>
  </g>
  <g id="axes_1">
   <g id="patch_2">
    <path d="M 29.86875 169.0848
L 115.50625 169.0848
Q 116.51375 169.0848 116.51375 167.976
L 116.51375 112.536
Q 116.51375 111.4272 115.50625 111.4272
L 29.86875 111.4272
Q 28.86125 111.4272 28.86125 112.536
L 28.86125 167.976
Q 28.86125 169.0848 29.86875 169.0848
z
" clip-path="url(#p74061c1ebd)" style="fill: #f0f0f0; stroke: #333333; stroke-width: 1.5; stroke-linejoin: miter"/>
   </g>
   <g id="patch_3">
    <path d="M 145.73125 169.0848
L 231.36875 169.0848
Q 232.37625 169.0848 232.37625 167.976
L 232.37625 112.536
Q 232.37625 111.4272 231.36875 111.4272
L 145.73125 111.4272
Q 144.72375 111.4272 144.72375 112.536
L 144.72375 167.976
Q 144.72375 169.0848 145.73125 169.0848
z
" clip-path="url(#p74061c1ebd)" style="fill: #f0f0f0; stroke: #333333; stroke-width: 1.5; stroke-linejoin: miter"/>
   </g>
   <g id="patch_4">
    <path d="M 261.59375 169.0848
L 347.23125 169.0848
Q 348.23875 169.0848 348.23875 167.976
L 348.23875 112.536
Q 348.23875 111.4272 347.23125 111.4272
L 261.59375 111.4272
Q 260.58625 111.4272 260.58625 112.536
L 260.58625 167.976
Q 260.58625 169.0848 261.59375 169.0848
z
" clip-path="url(#p74061c1ebd)" style="fill: #f0f0f0; stroke: #333333; stroke-width: 1.5; stroke-linejoin: miter"/>
   </g>
   <g id="patch_5">
    <path d="M 377.45625 169.0848
L 463.09375 169.0848
Q 464.10125 169.0848 464.10125 167.976
L 464.10125 112.536
Q 464.10125 111.4272 463.09375 111.4272
L 377.45625 111.4272
Q 376.44875 111.4272 376.44875 112.536
L 376.44875 167.976
Q 376.44875 169.0848 377.45625 169.0848
z
" clip-path="url(#p74061c1ebd)" style="fill: #f0f0f0; stroke: #333333; stroke-width: 1.5; stroke-linejoin: miter"/>
   </g>
   <g id="patch_6">
    <path d="M 493.31875 169.0848
L 578.95625 169.0848
Q 579.96375 169.0848 579.96375 167.976
L 579.96375 112.536
Q 579.96375 111.4272 578.95625 111.4272
L 493.31875 111.4272
Q 492.31125 111.4272 492.31125 112.536
L 492.31125 167.976
Q 492.31125 169.0848 493.31875 169.0848
z
" clip-path="url(#p74061c1ebd)" style="fill: #f0f0f0; stroke: #333333; stroke-width: 1.5; stroke-linejoin: miter"/>
   </g>
   <g id="patch_7">
    <path d="M 609.18125 169.0848
L 694.81875 169.0848
Q 695.82625 169.0848 695.82625 167.976
L 695.82625 112.536
Q 695.82625 111.4272 694.81875 111.4272
L 609.18125 111.4272
Q 608.17375 111.4272 608.17375 112.536
L 608.17375 167.976
Q 608.17375 169.0848 609.18125 169.0848
z
" clip-path="url(#p74061c1ebd)" style="fill: #f0f0f0; stroke: #333333; stroke-width: 1.5; stroke-linejoin: miter"/>
   </g>
   <g id="patch_8">
    <path d="M 120.026595 94.7952
Q 130.619032 94.7952 139.422616 94.7952
" clip-path="url(#p74061c1ebd)" style="fill: none; stroke: #1f77b4; stroke-width: 1.6; stroke-linecap: round"/>
    <path d="M 133.822616 91.9952
L 139.422616 94.7952
L 133.822616 97.5952
" clip-path="url(#p74061c1ebd)" style="fill: none; stroke: #1f77b4; stroke-width: 1.6; stroke-linecap: round"/>
   </g>
   <g id="patch_9">
    <path d="M 235.889095 94.7952
Q 246.481532 94.7952 255.285116 94.7952
" clip-path="url(#p74061c1ebd)" style="fill: none; stroke: #1f77b4; stroke-width: 1.6; stroke-linecap: round"/>
    <path d="M 249.685116 91.9952
L 255.285116 94.7952
L 249.685116 97.5952
" clip-path="url(#p74061c1ebd)" style="fill: none; stroke: #1f77b4; stroke-width: 1.6; stroke-linecap: round"/>
   </g>
   <g id="patch_10">
    <path d="M 351.751595 94.7952
Q 362.344032 94.7952 371.147616 94.7952
" clip-path="url(#p74061c1ebd)" style="fill: none; stroke: #1f77b4; stroke-width: 1.6; stroke-linecap: round"/>
    <path d="M 365.547616 91.9952
L 371.147616 94.7952
L 365.547616 97.5952
" clip-path="url(#p74061c1ebd)" style="fill: none; stroke: #1f77b4; stroke-width: 1.6; stroke-linecap: round"/>
   </g>
   <g id="patch_11">
    <path d="M 467.614095 94.7952
Q 478.206532 94.7952 487.010116 94.7952
" clip-path="url(#p74061c1ebd)" style="fill: none; stroke: #1f77b4; stroke-width: 1.6; stroke-linecap: round"/>
    <path d="M 481.410116 91.9952
L 487.010116 94.7952
L 481.410116 97.5952
" clip-path="url(#p74061c1ebd)" style="fill: none; stroke: #1f77b4; stroke-width: 1.6; stroke-linecap: round"/>
   </g>
   <g id="patch_12">
    <path d="M 583.476595 94.7952
Q 594.069032 94.7952 602.872616 94.7952
" clip-path="url(#p74061c1ebd)" style="fill: none; stroke: #1f77b4; stroke-width: 1.6; stroke-linecap: round"/>
    <path d="M 597.272616 91.9952
L 602.872616 94.7952
L 597.272616 97.5952
" clip-path="url(#p74061c1ebd)" style="fill: none; stroke: #1f77b4; stroke-width: 1.6; stroke-linecap: round"/>
   </g>
   <g id="patch_13">
    <path d="M 141.210905 185.7168
Q 130.618468 185.7168 121.36767 185.7168
" clip-path="url(#p74061c1ebd)" style="fill: none; stroke-dasharray: 4.8,2.4; stroke-dashoffset: 0; stroke: #8a3f00; stroke-width: 1.2; stroke-linecap: round"/>
    <path d="M 126.16767 188.1168
L 121.36767 185.7168
L 126.16767 183.3168
" clip-path="url(#p74061c1ebd)" style="fill: none; stroke-dasharray: 4.8,2.4; stroke-dashoffset: 0; stroke: #8a3f00; stroke-width: 1.2; stroke-linecap: round"/>
   </g>
   <g id="patch_14">
    <path d="M 257.073405 185.7168
Q 246.480968 185.7168 237.23017 185.7168
" clip-path="url(#p74061c1ebd)" style="fill: none; stroke-dasharray: 4.8,2.4; stroke-dashoffset: 0; stroke: #8a3f00; stroke-width: 1.2; stroke-linecap: round"/>
    <path d="M 242.03017 188.1168
L 237.23017 185.7168
L 242.03017 183.3168
" clip-path="url(#p74061c1ebd)" style="fill: none; stroke-dasharray: 4.8,2.4; stroke-dashoffset: 0; stroke: #8a3f00; stroke-width: 1.2; stroke-linecap: round"/>
   </g>
   <g id="patch_15">
    <path d="M 372.935905 185.7168
Q 362.343468 185.7168 353.09267 185.7168
" clip-path="url(#p74061c1ebd)" style="fill: none; stroke-dasharray: 4.8,2.4; stroke-dashoffset: 0; stroke: #8a3f00; stroke-width: 1.2; stroke-linecap: round"/>
    <path d="M 357.89267 188.1168
L 353.09267 185.7168
L 357.89267 183.3168
" clip-path="url(#p74061c1ebd)" style="fill: none; stroke-dasharray: 4.8,2.4; stroke-dashoffset: 0; stroke: #8a3f00; stroke-width: 1.2; stroke-linecap: round"/>
   </g>
   <g id="patch_16">
    <path d="M 488.798405 185.7168
Q 478.205968 185.7168 468.95517 185.7168
" clip-path="url(#p74061c1ebd)" style="fill: none; stroke-dasharray: 4.8,2.4; stroke-dashoffset: 0; stroke: #8a3f00; stroke-width: 1.2; stroke-linecap: round"/>
    <path d="M 473.75517 188.1168
L 468.95517 185.7168
L 473.75517 183.3168
" clip-path="url(#p74061c1ebd)" style="fill: none; stroke-dasharray: 4.8,2.4; stroke-dashoffset: 0; stroke: #8a3f00; stroke-width: 1.2; stroke-linecap: round"/>
   </g>
   <g id="patch_17">
    <path d="M 604.660905 185.7168
Q 594.068468 185.7168 584.81767 185.7168
" clip-path="url(#p74061c1ebd)" style="fill: none; stroke-dasharray: 4.8,2.4; stroke-dashoffset: 0; stroke: #8a3f00; stroke-width: 1.2; stroke-linecap: round"/>
    <path d="M 589.61767 188.1168
L 584.81767 185.7168
L 589.61767 183.3168
" clip-path="url(#p74061c1ebd)" style="fill: none; stroke-dasharray: 4.8,2.4; stroke-dashoffset: 0; stroke: #8a3f00; stroke-width: 1.2; stroke-linecap: round"/>
   </g>
   <g id="patch_18">
    <path d="M 24.83125 271.6488
L 699.85625 271.6488
Q 700.86375 271.6488 700.86375 270.54
L 700.86375 234.504
Q 700.86375 233.3952 699.85625 233.3952
L 24.83125 233.3952
Q 23.82375 233.3952 23.82375 234.504
L 23.82375 270.54
Q 23.82375 271.6488 24.83125 271.6488
z
" clip-path="url(#p74061c1ebd)" style="fill: #fff8e1; stroke: #666666; stroke-linejoin: miter"/>
   </g>
   <g id="text_1">
    <!-- P0 -->
    <g style="fill: #1a1a1f" transform="translate(66.066016 130.2768) scale(0.11 -0.11)">
     <defs>
      <path id="HelveticaNeue-50" d="M 1107 2381
L 1107 4058
L 2298 4058
Q 2816 4058 3056 3843
Q 3296 3629 3296 3219
Q 3296 2810 3056 2592
Q 2816 2374 2298 2381
L 1107 2381
z
M 499 4570
L 499 0
L 1107 0
L 1107 1869
L 2502 1869
Q 3194 1862 3549 2220
Q 3904 2579 3904 3219
Q 3904 3859 3549 4214
Q 3194 4570 2502 4570
L 499 4570
z
" transform="scale(0.015625)"/>
      <path id="HelveticaNeue-30" d="M 845 2234
Q 845 2400 848 2601
Q 851 2803 880 3004
Q 909 3206 963 3398
Q 1018 3590 1123 3734
Q 1229 3878 1389 3968
Q 1549 4058 1779 4058
Q 2010 4058 2170 3968
Q 2330 3878 2435 3734
Q 2541 3590 2595 3398
Q 2650 3206 2678 3004
Q 2707 2803 2710 2601
Q 2714 2400 2714 2234
Q 2714 1978 2698 1661
Q 2682 1344 2595 1065
Q 2509 787 2317 595
Q 2125 403 1779 403
Q 1434 403 1242 595
Q 1050 787 963 1065
Q 877 1344 861 1661
Q 845 1978 845 2234
z
M 269 2227
Q 269 1978 281 1709
Q 294 1440 345 1184
Q 397 928 493 701
Q 589 474 755 301
Q 922 128 1174 29
Q 1427 -70 1779 -70
Q 2138 -70 2387 29
Q 2637 128 2803 301
Q 2970 474 3066 701
Q 3162 928 3213 1184
Q 3264 1440 3277 1709
Q 3290 1978 3290 2227
Q 3290 2477 3277 2745
Q 3264 3014 3213 3270
Q 3162 3526 3066 3756
Q 2970 3987 2803 4160
Q 2637 4333 2384 4435
Q 2131 4538 1779 4538
Q 1427 4538 1174 4435
Q 922 4333 755 4160
Q 589 3987 493 3756
Q 397 3526 345 3270
Q 294 3014 281 2745
Q 269 2477 269 2227
z
" transform="scale(0.015625)"/>
     </defs>
     <use xlink:href="#HelveticaNeue-50"/>
     <use xlink:href="#HelveticaNeue-30" transform="translate(64.799988 0)"/>
    </g>
   </g>
   <g id="text_2">
    <!-- RULE -->
    <g style="fill: #1a1a1f" transform="translate(62.452969 152.4528) scale(0.085 -0.085)">
     <defs>
      <path id="DejaVuSansMono-52" d="M 2375 2203
Q 2619 2141 2791 1967
Q 2963 1794 3219 1275
L 3853 0
L 3175 0
L 2619 1178
Q 2378 1681 2186 1826
Q 1994 1972 1684 1972
L 1081 1972
L 1081 0
L 447 0
L 447 4666
L 1747 4666
Q 2516 4666 2925 4319
Q 3334 3972 3334 3316
Q 3334 2853 3082 2561
Q 2831 2269 2375 2203
z
M 1081 4147
L 1081 2491
L 1772 2491
Q 2225 2491 2447 2694
Q 2669 2897 2669 3316
Q 2669 3719 2433 3933
Q 2197 4147 1747 4147
L 1081 4147
z
" transform="scale(0.015625)"/>
      <path id="DejaVuSansMono-55" d="M 459 1791
L 459 4666
L 1094 4666
L 1094 1503
Q 1094 1163 1112 1017
Q 1131 872 1178 794
Q 1278 609 1467 515
Q 1656 422 1925 422
Q 2197 422 2384 515
Q 2572 609 2675 794
Q 2722 872 2740 1015
Q 2759 1159 2759 1497
L 2759 4666
L 3391 4666
L 3391 1791
Q 3391 1075 3302 773
Q 3213 472 2994 275
Q 2788 91 2522 0
Q 2256 -91 1925 -91
Q 1597 -91 1331 0
Q 1066 91 856 275
Q 641 469 550 776
Q 459 1084 459 1791
z
" transform="scale(0.015625)"/>
      <path id="DejaVuSansMono-4c" d="M 672 4666
L 1306 4666
L 1306 531
L 3559 531
L 3559 0
L 672 0
L 672 4666
z
" transform="scale(0.015625)"/>
      <path id="DejaVuSansMono-45" d="M 616 4666
L 3384 4666
L 3384 4134
L 1247 4134
L 1247 2753
L 3291 2753
L 3291 2222
L 1247 2222
L 1247 531
L 3444 531
L 3444 0
L 616 0
L 616 4666
z
" transform="scale(0.015625)"/>
     </defs>
     <use xlink:href="#DejaVuSansMono-52"/>
     <use xlink:href="#DejaVuSansMono-55" transform="translate(60.205078 0)"/>
     <use xlink:href="#DejaVuSansMono-4c" transform="translate(120.410156 0)"/>
     <use xlink:href="#DejaVuSansMono-45" transform="translate(180.615234 0)"/>
    </g>
   </g>
   <g id="text_3">
    <!-- P1 -->
    <g style="fill: #1a1a1f" transform="translate(181.928516 130.2768) scale(0.11 -0.11)">
     <defs>
      <path id="HelveticaNeue-31" d="M 2278 0
L 2278 4538
L 1862 4538
Q 1818 4282 1696 4115
Q 1574 3949 1398 3853
Q 1222 3757 1004 3721
Q 787 3686 557 3686
L 557 3251
L 1734 3251
L 1734 0
L 2278 0
z
" transform="scale(0.015625)"/>
     </defs>
     <use xlink:href="#HelveticaNeue-50"/>
     <use xlink:href="#HelveticaNeue-31" transform="translate(64.799988 0)"/>
    </g>
   </g>
   <g id="text_4">
    <!-- MODEL_SHADOW -->
    <g style="fill: #1a1a1f" transform="translate(157.846406 152.4528) scale(0.085 -0.085)">
     <defs>
      <path id="DejaVuSansMono-4d" d="M 269 4666
L 1113 4666
L 1919 2291
L 2731 4666
L 3578 4666
L 3578 0
L 2994 0
L 2994 4122
L 2163 1663
L 1684 1663
L 850 4122
L 850 0
L 269 0
L 269 4666
z
" transform="scale(0.015625)"/>
      <path id="DejaVuSansMono-4f" d="M 2828 2328
Q 2828 3356 2617 3797
Q 2406 4238 1925 4238
Q 1447 4238 1236 3797
Q 1025 3356 1025 2328
Q 1025 1303 1236 862
Q 1447 422 1925 422
Q 2406 422 2617 861
Q 2828 1300 2828 2328
z
M 3488 2328
Q 3488 1109 3102 509
Q 2716 -91 1925 -91
Q 1134 -91 750 506
Q 366 1103 366 2328
Q 366 3550 752 4150
Q 1138 4750 1925 4750
Q 2716 4750 3102 4150
Q 3488 3550 3488 2328
z
" transform="scale(0.015625)"/>
      <path id="DejaVuSansMono-44" d="M 1363 519
Q 2159 519 2475 911
Q 2791 1303 2791 2328
Q 2791 3363 2477 3755
Q 2163 4147 1363 4147
L 1063 4147
L 1063 519
L 1363 519
z
M 1375 4666
Q 2444 4666 2950 4097
Q 3456 3528 3456 2328
Q 3456 1134 2950 567
Q 2444 0 1375 0
L 428 0
L 428 4666
L 1375 4666
z
" transform="scale(0.015625)"/>
      <path id="DejaVuSansMono-5f" d="M 3853 -1259
L 3853 -1509
L 0 -1509
L 0 -1259
L 3853 -1259
z
" transform="scale(0.015625)"/>
      <path id="DejaVuSansMono-53" d="M 3163 4506
L 3163 3866
Q 2875 4050 2586 4144
Q 2297 4238 2003 4238
Q 1556 4238 1297 4030
Q 1038 3822 1038 3469
Q 1038 3159 1208 2996
Q 1378 2834 1844 2725
L 2175 2650
Q 2831 2497 3131 2169
Q 3431 1841 3431 1275
Q 3431 609 3018 259
Q 2606 -91 1819 -91
Q 1491 -91 1159 -20
Q 828 50 494 191
L 494 863
Q 853 634 1173 528
Q 1494 422 1819 422
Q 2297 422 2562 636
Q 2828 850 2828 1234
Q 2828 1584 2645 1768
Q 2463 1953 2009 2053
L 1672 2131
Q 1022 2278 728 2575
Q 434 2872 434 3372
Q 434 3997 854 4373
Q 1275 4750 1972 4750
Q 2241 4750 2537 4689
Q 2834 4628 3163 4506
z
" transform="scale(0.015625)"/>
      <path id="DejaVuSansMono-48" d="M 428 4666
L 1063 4666
L 1063 2753
L 2791 2753
L 2791 4666
L 3425 4666
L 3425 0
L 2791 0
L 2791 2222
L 1063 2222
L 1063 0
L 428 0
L 428 4666
z
" transform="scale(0.015625)"/>
      <path id="DejaVuSansMono-41" d="M 1925 4109
L 1259 1722
L 2591 1722
L 1925 4109
z
M 1544 4666
L 2309 4666
L 3738 0
L 3084 0
L 2741 1216
L 1106 1216
L 769 0
L 116 0
L 1544 4666
z
" transform="scale(0.015625)"/>
      <path id="DejaVuSansMono-57" d="M 0 4666
L 616 4666
L 1063 878
L 1594 3384
L 2253 3384
L 2791 872
L 3238 4666
L 3853 4666
L 3156 0
L 2559 0
L 1925 2772
L 1294 0
L 697 0
L 0 4666
z
" transform="scale(0.015625)"/>
     </defs>
     <use xlink:href="#DejaVuSansMono-4d"/>
     <use xlink:href="#DejaVuSansMono-4f" transform="translate(60.205078 0)"/>
     <use xlink:href="#DejaVuSansMono-44" transform="translate(120.410156 0)"/>
     <use xlink:href="#DejaVuSansMono-45" transform="translate(180.615234 0)"/>
     <use xlink:href="#DejaVuSansMono-4c" transform="translate(240.820312 0)"/>
     <use xlink:href="#DejaVuSansMono-5f" transform="translate(301.025391 0)"/>
     <use xlink:href="#DejaVuSansMono-53" transform="translate(361.230469 0)"/>
     <use xlink:href="#DejaVuSansMono-48" transform="translate(421.435547 0)"/>
     <use xlink:href="#DejaVuSansMono-41" transform="translate(481.640625 0)"/>
     <use xlink:href="#DejaVuSansMono-44" transform="translate(541.845703 0)"/>
     <use xlink:href="#DejaVuSansMono-4f" transform="translate(602.050781 0)"/>
     <use xlink:href="#DejaVuSansMono-57" transform="translate(662.255859 0)"/>
    </g>
   </g>
   <g id="text_5">
    <!-- P2 -->
    <g style="fill: #1a1a1f" transform="translate(297.791016 130.2768) scale(0.11 -0.11)">
     <defs>
      <path id="HelveticaNeue-32" d="M 282 2931
L 826 2931
Q 819 3136 867 3337
Q 915 3539 1024 3699
Q 1133 3859 1302 3958
Q 1472 4058 1709 4058
Q 1888 4058 2048 4000
Q 2208 3942 2326 3833
Q 2445 3725 2515 3574
Q 2586 3424 2586 3238
Q 2586 3002 2512 2822
Q 2438 2643 2294 2489
Q 2150 2336 1932 2185
Q 1715 2035 1427 1856
Q 1190 1715 972 1555
Q 755 1395 582 1184
Q 410 973 298 688
Q 186 403 154 0
L 3117 0
L 3117 480
L 787 480
Q 826 691 950 854
Q 1075 1018 1251 1158
Q 1427 1299 1638 1424
Q 1850 1549 2061 1677
Q 2272 1811 2470 1958
Q 2669 2106 2822 2288
Q 2976 2470 3069 2700
Q 3162 2931 3162 3232
Q 3162 3552 3050 3795
Q 2938 4038 2746 4201
Q 2554 4365 2294 4451
Q 2035 4538 1741 4538
Q 1382 4538 1100 4416
Q 819 4294 630 4080
Q 442 3866 352 3571
Q 262 3277 282 2931
z
" transform="scale(0.015625)"/>
     </defs>
     <use xlink:href="#HelveticaNeue-50"/>
     <use xlink:href="#HelveticaNeue-32" transform="translate(64.799988 0)"/>
    </g>
   </g>
   <g id="text_6">
    <!-- MODEL_PRIMARY -->
    <g style="fill: #1a1a1f" transform="translate(271.150273 152.4528) scale(0.085 -0.085)">
     <defs>
      <path id="DejaVuSansMono-50" d="M 1247 4147
L 1247 2394
L 1978 2394
Q 2416 2394 2661 2625
Q 2906 2856 2906 3272
Q 2906 3688 2662 3917
Q 2419 4147 1978 4147
L 1247 4147
z
M 616 4666
L 1978 4666
Q 2759 4666 3162 4311
Q 3566 3956 3566 3272
Q 3566 2581 3164 2228
Q 2763 1875 1978 1875
L 1247 1875
L 1247 0
L 616 0
L 616 4666
z
" transform="scale(0.015625)"/>
      <path id="DejaVuSansMono-49" d="M 628 4666
L 3219 4666
L 3219 4134
L 2241 4134
L 2241 531
L 3219 531
L 3219 0
L 628 0
L 628 531
L 1606 531
L 1606 4134
L 628 4134
L 628 4666
z
" transform="scale(0.015625)"/>
      <path id="DejaVuSansMono-59" d="M 116 4666
L 788 4666
L 1925 2606
L 3059 4666
L 3738 4666
L 2241 2094
L 2241 0
L 1606 0
L 1606 2094
L 116 4666
z
" transform="scale(0.015625)"/>
     </defs>
     <use xlink:href="#DejaVuSansMono-4d"/>
     <use xlink:href="#DejaVuSansMono-4f" transform="translate(60.205078 0)"/>
     <use xlink:href="#DejaVuSansMono-44" transform="translate(120.410156 0)"/>
     <use xlink:href="#DejaVuSansMono-45" transform="translate(180.615234 0)"/>
     <use xlink:href="#DejaVuSansMono-4c" transform="translate(240.820312 0)"/>
     <use xlink:href="#DejaVuSansMono-5f" transform="translate(301.025391 0)"/>
     <use xlink:href="#DejaVuSansMono-50" transform="translate(361.230469 0)"/>
     <use xlink:href="#DejaVuSansMono-52" transform="translate(421.435547 0)"/>
     <use xlink:href="#DejaVuSansMono-49" transform="translate(481.640625 0)"/>
     <use xlink:href="#DejaVuSansMono-4d" transform="translate(541.845703 0)"/>
     <use xlink:href="#DejaVuSansMono-41" transform="translate(602.050781 0)"/>
     <use xlink:href="#DejaVuSansMono-52" transform="translate(662.255859 0)"/>
     <use xlink:href="#DejaVuSansMono-59" transform="translate(722.460938 0)"/>
    </g>
   </g>
   <g id="text_7">
    <!-- P3 -->
    <g style="fill: #1a1a1f" transform="translate(413.653516 130.2768) scale(0.11 -0.11)">
     <defs>
      <path id="HelveticaNeue-33" d="M 1395 2592
L 1395 2131
Q 1549 2150 1722 2150
Q 1926 2150 2102 2096
Q 2278 2042 2406 1930
Q 2534 1818 2611 1654
Q 2688 1491 2688 1280
Q 2688 1075 2608 912
Q 2528 749 2393 637
Q 2259 525 2080 464
Q 1901 403 1702 403
Q 1235 403 992 681
Q 749 960 736 1402
L 192 1402
Q 186 1050 291 774
Q 397 499 595 310
Q 794 122 1075 26
Q 1357 -70 1702 -70
Q 2022 -70 2307 16
Q 2592 102 2803 275
Q 3014 448 3139 707
Q 3264 966 3264 1306
Q 3264 1715 3062 2016
Q 2861 2317 2445 2406
L 2445 2419
Q 2714 2541 2893 2777
Q 3072 3014 3072 3322
Q 3072 3635 2966 3865
Q 2861 4096 2675 4243
Q 2490 4390 2237 4464
Q 1984 4538 1690 4538
Q 1350 4538 1091 4429
Q 832 4320 659 4128
Q 486 3936 393 3667
Q 301 3398 288 3072
L 832 3072
Q 832 3270 883 3449
Q 934 3629 1040 3763
Q 1146 3898 1309 3978
Q 1472 4058 1690 4058
Q 2035 4058 2265 3875
Q 2496 3693 2496 3328
Q 2496 3149 2425 3008
Q 2355 2867 2236 2774
Q 2118 2682 1961 2634
Q 1805 2586 1632 2586
L 1517 2586
Q 1485 2586 1453 2586
Q 1427 2586 1395 2592
z
" transform="scale(0.015625)"/>
     </defs>
     <use xlink:href="#HelveticaNeue-50"/>
     <use xlink:href="#HelveticaNeue-33" transform="translate(64.799988 0)"/>
    </g>
   </g>
   <g id="text_8">
    <!-- ML_SHADOW -->
    <g style="fill: #1a1a1f" transform="translate(397.247305 152.4528) scale(0.085 -0.085)">
     <use xlink:href="#DejaVuSansMono-4d"/>
     <use xlink:href="#DejaVuSansMono-4c" transform="translate(60.205078 0)"/>
     <use xlink:href="#DejaVuSansMono-5f" transform="translate(120.410156 0)"/>
     <use xlink:href="#DejaVuSansMono-53" transform="translate(180.615234 0)"/>
     <use xlink:href="#DejaVuSansMono-48" transform="translate(240.820312 0)"/>
     <use xlink:href="#DejaVuSansMono-41" transform="translate(301.025391 0)"/>
     <use xlink:href="#DejaVuSansMono-44" transform="translate(361.230469 0)"/>
     <use xlink:href="#DejaVuSansMono-4f" transform="translate(421.435547 0)"/>
     <use xlink:href="#DejaVuSansMono-57" transform="translate(481.640625 0)"/>
    </g>
   </g>
   <g id="text_9">
    <!-- P4 -->
    <g style="fill: #1a1a1f" transform="translate(529.516016 130.2768) scale(0.11 -0.11)">
     <defs>
      <path id="HelveticaNeue-34" d="M 2170 1542
L 646 1542
L 2157 3763
L 2170 3763
L 2170 1542
z
M 2682 1542
L 2682 4538
L 2246 4538
L 179 1587
L 179 1062
L 2170 1062
L 2170 0
L 2682 0
L 2682 1062
L 3296 1062
L 3296 1542
L 2682 1542
z
" transform="scale(0.015625)"/>
     </defs>
     <use xlink:href="#HelveticaNeue-50"/>
     <use xlink:href="#HelveticaNeue-34" transform="translate(64.799988 0)"/>
    </g>
   </g>
   <g id="text_10">
    <!-- ML_W_FALLBACK -->
    <g style="fill: #1a1a1f" transform="translate(502.875273 152.4528) scale(0.085 -0.085)">
     <defs>
      <path id="DejaVuSansMono-46" d="M 728 4666
L 3475 4666
L 3475 4134
L 1363 4134
L 1363 2759
L 3278 2759
L 3278 2228
L 1363 2228
L 1363 0
L 728 0
L 728 4666
z
" transform="scale(0.015625)"/>
      <path id="DejaVuSansMono-42" d="M 1153 2228
L 1153 519
L 1900 519
Q 2450 519 2684 711
Q 2919 903 2919 1344
Q 2919 1800 2672 2014
Q 2425 2228 1900 2228
L 1153 2228
z
M 1153 4147
L 1153 2741
L 1888 2741
Q 2344 2741 2548 2916
Q 2753 3091 2753 3481
Q 2753 3834 2551 3990
Q 2350 4147 1888 4147
L 1153 4147
z
M 519 4666
L 1900 4666
Q 2616 4666 3003 4356
Q 3391 4047 3391 3481
Q 3391 3053 3186 2806
Q 2981 2559 2572 2497
Q 3031 2428 3292 2104
Q 3553 1781 3553 1281
Q 3553 647 3137 323
Q 2722 0 1900 0
L 519 0
L 519 4666
z
" transform="scale(0.015625)"/>
      <path id="DejaVuSansMono-43" d="M 3353 166
Q 3113 38 2859 -26
Q 2606 -91 2322 -91
Q 1425 -91 929 543
Q 434 1178 434 2328
Q 434 3472 932 4111
Q 1431 4750 2322 4750
Q 2606 4750 2859 4686
Q 3113 4622 3353 4494
L 3353 3847
Q 3122 4038 2856 4138
Q 2591 4238 2322 4238
Q 1706 4238 1400 3763
Q 1094 3288 1094 2328
Q 1094 1372 1400 897
Q 1706 422 2322 422
Q 2597 422 2861 522
Q 3125 622 3353 813
L 3353 166
z
" transform="scale(0.015625)"/>
      <path id="DejaVuSansMono-4b" d="M 428 4666
L 1063 4666
L 1063 2591
L 3034 4666
L 3775 4666
L 1959 2759
L 3828 0
L 3066 0
L 1544 2338
L 1063 1825
L 1063 0
L 428 0
L 428 4666
z
" transform="scale(0.015625)"/>
     </defs>
     <use xlink:href="#DejaVuSansMono-4d"/>
     <use xlink:href="#DejaVuSansMono-4c" transform="translate(60.205078 0)"/>
     <use xlink:href="#DejaVuSansMono-5f" transform="translate(120.410156 0)"/>
     <use xlink:href="#DejaVuSansMono-57" transform="translate(180.615234 0)"/>
     <use xlink:href="#DejaVuSansMono-5f" transform="translate(240.820312 0)"/>
     <use xlink:href="#DejaVuSansMono-46" transform="translate(301.025391 0)"/>
     <use xlink:href="#DejaVuSansMono-41" transform="translate(361.230469 0)"/>
     <use xlink:href="#DejaVuSansMono-4c" transform="translate(421.435547 0)"/>
     <use xlink:href="#DejaVuSansMono-4c" transform="translate(481.640625 0)"/>
     <use xlink:href="#DejaVuSansMono-42" transform="translate(541.845703 0)"/>
     <use xlink:href="#DejaVuSansMono-41" transform="translate(602.050781 0)"/>
     <use xlink:href="#DejaVuSansMono-43" transform="translate(662.255859 0)"/>
     <use xlink:href="#DejaVuSansMono-4b" transform="translate(722.460938 0)"/>
    </g>
   </g>
   <g id="text_11">
    <!-- P5 -->
    <g style="fill: #1a1a1f" transform="translate(645.378516 130.2768) scale(0.11 -0.11)">
     <defs>
      <path id="HelveticaNeue-35" d="M 3008 3981
L 3008 4461
L 768 4461
L 346 2106
L 813 2080
Q 973 2272 1181 2390
Q 1389 2509 1658 2509
Q 1888 2509 2077 2432
Q 2266 2355 2400 2217
Q 2534 2080 2608 1891
Q 2682 1702 2682 1478
Q 2682 1210 2605 1008
Q 2528 806 2397 672
Q 2266 538 2090 470
Q 1914 403 1722 403
Q 1517 403 1347 464
Q 1178 525 1053 637
Q 928 749 854 899
Q 781 1050 768 1222
L 224 1222
Q 230 915 345 672
Q 461 429 659 265
Q 858 102 1117 16
Q 1376 -70 1670 -70
Q 2067 -70 2364 54
Q 2662 179 2860 390
Q 3059 602 3158 874
Q 3258 1146 3258 1434
Q 3258 1824 3142 2115
Q 3027 2406 2828 2601
Q 2630 2797 2361 2893
Q 2093 2989 1792 2989
Q 1562 2989 1328 2909
Q 1094 2829 947 2662
L 934 2675
L 1178 3981
L 3008 3981
z
" transform="scale(0.015625)"/>
     </defs>
     <use xlink:href="#HelveticaNeue-50"/>
     <use xlink:href="#HelveticaNeue-35" transform="translate(64.799988 0)"/>
    </g>
   </g>
   <g id="text_12">
    <!-- ML_PRIMARY -->
    <g style="fill: #1a1a1f" transform="translate(626.413672 152.4528) scale(0.085 -0.085)">
     <use xlink:href="#DejaVuSansMono-4d"/>
     <use xlink:href="#DejaVuSansMono-4c" transform="translate(60.205078 0)"/>
     <use xlink:href="#DejaVuSansMono-5f" transform="translate(120.410156 0)"/>
     <use xlink:href="#DejaVuSansMono-50" transform="translate(180.615234 0)"/>
     <use xlink:href="#DejaVuSansMono-52" transform="translate(240.820312 0)"/>
     <use xlink:href="#DejaVuSansMono-49" transform="translate(301.025391 0)"/>
     <use xlink:href="#DejaVuSansMono-4d" transform="translate(361.230469 0)"/>
     <use xlink:href="#DejaVuSansMono-41" transform="translate(421.435547 0)"/>
     <use xlink:href="#DejaVuSansMono-52" transform="translate(481.640625 0)"/>
     <use xlink:href="#DejaVuSansMono-59" transform="translate(541.845703 0)"/>
    </g>
   </g>
   <g id="text_13">
    <!-- shadow add -->
    <g style="fill: #1f77b4" transform="translate(107.163398 84.816) scale(0.085 -0.085)">
     <defs>
      <path id="HelveticaNeue-73" d="M 742 1043
L 198 1043
Q 211 736 326 521
Q 442 307 634 176
Q 826 45 1075 -12
Q 1325 -70 1600 -70
Q 1850 -70 2102 -22
Q 2355 26 2556 147
Q 2758 269 2883 467
Q 3008 666 3008 966
Q 3008 1203 2915 1363
Q 2822 1523 2672 1628
Q 2522 1734 2326 1798
Q 2131 1862 1926 1907
Q 1734 1952 1542 1993
Q 1350 2035 1196 2096
Q 1043 2157 944 2249
Q 845 2342 845 2483
Q 845 2611 909 2691
Q 973 2771 1075 2819
Q 1178 2867 1302 2886
Q 1427 2906 1549 2906
Q 1683 2906 1814 2877
Q 1946 2848 2054 2784
Q 2163 2720 2233 2614
Q 2304 2509 2317 2349
L 2861 2349
Q 2842 2650 2733 2851
Q 2624 3053 2441 3171
Q 2259 3290 2022 3338
Q 1786 3386 1504 3386
Q 1286 3386 1065 3331
Q 845 3277 669 3165
Q 493 3053 381 2873
Q 269 2694 269 2445
Q 269 2125 429 1945
Q 589 1766 829 1667
Q 1069 1568 1350 1513
Q 1632 1459 1872 1392
Q 2112 1325 2272 1216
Q 2432 1107 2432 896
Q 2432 742 2355 643
Q 2278 544 2160 493
Q 2042 442 1901 422
Q 1760 403 1632 403
Q 1466 403 1309 435
Q 1152 467 1027 540
Q 902 614 825 739
Q 749 864 742 1043
z
" transform="scale(0.015625)"/>
      <path id="HelveticaNeue-68" d="M 410 4570
L 410 0
L 954 0
L 954 1869
Q 954 2093 1014 2281
Q 1075 2470 1196 2611
Q 1318 2752 1500 2829
Q 1683 2906 1933 2906
Q 2246 2906 2425 2726
Q 2605 2547 2605 2240
L 2605 0
L 3149 0
L 3149 2176
Q 3149 2445 3094 2665
Q 3040 2886 2905 3046
Q 2771 3206 2553 3296
Q 2336 3386 2010 3386
Q 1862 3386 1705 3354
Q 1549 3322 1405 3254
Q 1261 3187 1145 3081
Q 1030 2976 966 2822
L 954 2822
L 954 4570
L 410 4570
z
" transform="scale(0.015625)"/>
      <path id="HelveticaNeue-61" d="M 3341 13
Q 3200 -70 2950 -70
Q 2739 -70 2614 48
Q 2490 166 2490 435
Q 2266 166 1968 48
Q 1670 -70 1325 -70
Q 1101 -70 899 -19
Q 698 32 550 141
Q 403 250 316 426
Q 230 602 230 851
Q 230 1133 326 1312
Q 422 1491 579 1603
Q 736 1715 937 1772
Q 1139 1830 1350 1869
Q 1574 1914 1776 1936
Q 1978 1958 2131 2000
Q 2285 2042 2374 2122
Q 2464 2202 2464 2355
Q 2464 2534 2397 2643
Q 2330 2752 2224 2809
Q 2118 2867 1987 2886
Q 1856 2906 1728 2906
Q 1382 2906 1152 2774
Q 922 2643 902 2278
L 358 2278
Q 371 2586 486 2797
Q 602 3008 794 3139
Q 986 3270 1232 3328
Q 1478 3386 1760 3386
Q 1984 3386 2205 3354
Q 2426 3322 2605 3222
Q 2784 3123 2893 2944
Q 3002 2765 3002 2477
L 3002 774
Q 3002 582 3024 492
Q 3046 403 3174 403
Q 3245 403 3341 435
L 3341 13
z
M 2458 1709
Q 2355 1632 2188 1597
Q 2022 1562 1840 1539
Q 1658 1517 1472 1488
Q 1286 1459 1139 1395
Q 992 1331 899 1212
Q 806 1094 806 890
Q 806 755 860 662
Q 915 570 1001 512
Q 1088 454 1203 428
Q 1318 403 1446 403
Q 1715 403 1907 476
Q 2099 550 2220 662
Q 2342 774 2400 905
Q 2458 1037 2458 1152
L 2458 1709
z
" transform="scale(0.015625)"/>
      <path id="HelveticaNeue-64" d="M 806 1626
Q 806 1869 857 2099
Q 909 2330 1024 2509
Q 1139 2688 1331 2797
Q 1523 2906 1798 2906
Q 2080 2906 2278 2800
Q 2477 2694 2601 2521
Q 2726 2349 2784 2121
Q 2842 1894 2842 1651
Q 2842 1421 2787 1197
Q 2733 973 2611 797
Q 2490 621 2298 512
Q 2106 403 1830 403
Q 1568 403 1373 505
Q 1178 608 1053 781
Q 928 954 867 1174
Q 806 1395 806 1626
z
M 3366 0
L 3366 4570
L 2822 4570
L 2822 2867
L 2810 2867
Q 2720 3014 2589 3113
Q 2458 3213 2310 3273
Q 2163 3334 2016 3360
Q 1869 3386 1741 3386
Q 1363 3386 1078 3248
Q 794 3110 605 2876
Q 416 2643 323 2329
Q 230 2016 230 1664
Q 230 1312 326 998
Q 422 685 611 448
Q 800 211 1085 70
Q 1370 -70 1754 -70
Q 2099 -70 2387 51
Q 2675 173 2810 448
L 2822 448
L 2822 0
L 3366 0
z
" transform="scale(0.015625)"/>
      <path id="HelveticaNeue-6f" d="M 806 1651
Q 806 1952 886 2185
Q 966 2419 1107 2579
Q 1248 2739 1437 2822
Q 1626 2906 1837 2906
Q 2048 2906 2237 2822
Q 2426 2739 2566 2579
Q 2707 2419 2787 2185
Q 2867 1952 2867 1651
Q 2867 1350 2787 1116
Q 2707 883 2566 726
Q 2426 570 2237 486
Q 2048 403 1837 403
Q 1626 403 1437 486
Q 1248 570 1107 726
Q 966 883 886 1116
Q 806 1350 806 1651
z
M 230 1651
Q 230 1286 332 972
Q 435 659 640 425
Q 845 192 1145 61
Q 1446 -70 1837 -70
Q 2234 -70 2531 61
Q 2829 192 3033 425
Q 3238 659 3340 972
Q 3443 1286 3443 1651
Q 3443 2016 3340 2333
Q 3238 2650 3033 2883
Q 2829 3117 2531 3251
Q 2234 3386 1837 3386
Q 1446 3386 1145 3251
Q 845 3117 640 2883
Q 435 2650 332 2333
Q 230 2016 230 1651
z
" transform="scale(0.015625)"/>
      <path id="HelveticaNeue-77" d="M 3686 0
L 4742 3309
L 4179 3309
L 3437 602
L 3424 602
L 2733 3309
L 2138 3309
L 1472 602
L 1459 602
L 710 3309
L 109 3309
L 1171 0
L 1760 0
L 2426 2630
L 2438 2630
L 3110 0
L 3686 0
z
" transform="scale(0.015625)"/>
      <path id="HelveticaNeue-20" transform="scale(0.015625)"/>
     </defs>
     <use xlink:href="#HelveticaNeue-73"/>
     <use xlink:href="#HelveticaNeue-68" transform="translate(49.999985 0)"/>
     <use xlink:href="#HelveticaNeue-61" transform="translate(105.599976 0)"/>
     <use xlink:href="#HelveticaNeue-64" transform="translate(159.299973 0)"/>
     <use xlink:href="#HelveticaNeue-6f" transform="translate(218.59996 0)"/>
     <use xlink:href="#HelveticaNeue-77" transform="translate(275.999954 0)"/>
     <use xlink:href="#HelveticaNeue-20" transform="translate(351.799942 0)"/>
     <use xlink:href="#HelveticaNeue-61" transform="translate(379.59993 0)"/>
     <use xlink:href="#HelveticaNeue-64" transform="translate(433.299927 0)"/>
     <use xlink:href="#HelveticaNeue-64" transform="translate(492.599915 0)"/>
    </g>
   </g>
   <g id="text_14">
    <!-- McNemar gate -->
    <g style="fill: #1f77b4" transform="translate(218.299102 84.816) scale(0.085 -0.085)">
     <defs>
      <path id="HelveticaNeue-4d" d="M 512 4570
L 512 0
L 1088 0
L 1088 3802
L 1101 3802
L 2528 0
L 3046 0
L 4474 3802
L 4486 3802
L 4486 0
L 5062 0
L 5062 4570
L 4230 4570
L 2784 730
L 1344 4570
L 512 4570
z
" transform="scale(0.015625)"/>
      <path id="HelveticaNeue-63" d="M 2656 2246
L 3219 2246
Q 3187 2541 3065 2755
Q 2944 2970 2755 3110
Q 2566 3251 2320 3318
Q 2074 3386 1792 3386
Q 1402 3386 1107 3248
Q 813 3110 617 2870
Q 422 2630 326 2307
Q 230 1984 230 1613
Q 230 1242 329 931
Q 429 621 624 397
Q 819 173 1110 51
Q 1402 -70 1779 -70
Q 2413 -70 2781 262
Q 3149 595 3238 1210
L 2682 1210
Q 2630 826 2403 614
Q 2176 403 1773 403
Q 1517 403 1331 505
Q 1146 608 1030 777
Q 915 947 860 1164
Q 806 1382 806 1613
Q 806 1862 857 2096
Q 909 2330 1027 2509
Q 1146 2688 1344 2797
Q 1542 2906 1837 2906
Q 2182 2906 2387 2733
Q 2592 2560 2656 2246
z
" transform="scale(0.015625)"/>
      <path id="HelveticaNeue-4e" d="M 493 4570
L 493 0
L 1069 0
L 1069 3667
L 1082 3667
L 3469 0
L 4134 0
L 4134 4570
L 3558 4570
L 3558 864
L 3546 864
L 1139 4570
L 493 4570
z
" transform="scale(0.015625)"/>
      <path id="HelveticaNeue-65" d="M 2707 1971
L 806 1971
Q 819 2163 889 2332
Q 960 2502 1081 2630
Q 1203 2758 1372 2832
Q 1542 2906 1754 2906
Q 1958 2906 2128 2832
Q 2298 2758 2422 2633
Q 2547 2509 2620 2336
Q 2694 2163 2707 1971
z
M 3232 1050
L 2694 1050
Q 2624 723 2403 563
Q 2182 403 1837 403
Q 1568 403 1369 492
Q 1171 582 1043 732
Q 915 883 857 1078
Q 800 1274 806 1491
L 3283 1491
Q 3296 1792 3229 2125
Q 3162 2458 2986 2739
Q 2810 3021 2518 3203
Q 2227 3386 1786 3386
Q 1446 3386 1161 3258
Q 877 3130 669 2899
Q 461 2669 345 2355
Q 230 2042 230 1664
Q 243 1286 342 966
Q 442 646 640 416
Q 838 186 1129 58
Q 1421 -70 1818 -70
Q 2381 -70 2752 211
Q 3123 493 3232 1050
z
" transform="scale(0.015625)"/>
      <path id="HelveticaNeue-6d" d="M 410 3309
L 410 0
L 954 0
L 954 2061
Q 954 2157 1002 2301
Q 1050 2445 1155 2579
Q 1261 2714 1430 2810
Q 1600 2906 1837 2906
Q 2022 2906 2140 2851
Q 2259 2797 2329 2697
Q 2400 2598 2429 2464
Q 2458 2330 2458 2170
L 2458 0
L 3002 0
L 3002 2061
Q 3002 2445 3232 2675
Q 3462 2906 3866 2906
Q 4064 2906 4189 2848
Q 4314 2790 4384 2691
Q 4454 2592 4480 2457
Q 4506 2323 4506 2170
L 4506 0
L 5050 0
L 5050 2426
Q 5050 2682 4970 2864
Q 4890 3046 4746 3161
Q 4602 3277 4400 3331
Q 4198 3386 3949 3386
Q 3622 3386 3350 3238
Q 3078 3091 2912 2822
Q 2810 3130 2560 3258
Q 2310 3386 2003 3386
Q 1306 3386 934 2822
L 922 2822
L 922 3309
L 410 3309
z
" transform="scale(0.015625)"/>
      <path id="HelveticaNeue-72" d="M 390 3309
L 390 0
L 934 0
L 934 1472
Q 934 1792 998 2038
Q 1062 2285 1203 2457
Q 1344 2630 1574 2720
Q 1805 2810 2131 2810
L 2131 3386
Q 1690 3398 1402 3206
Q 1114 3014 915 2611
L 902 2611
L 902 3309
L 390 3309
z
" transform="scale(0.015625)"/>
      <path id="HelveticaNeue-67" d="M 3264 282
L 3264 3309
L 2752 3309
L 2752 2835
L 2746 2835
Q 2598 3110 2336 3248
Q 2074 3386 1760 3386
Q 1331 3386 1036 3222
Q 742 3059 563 2806
Q 384 2554 307 2243
Q 230 1933 230 1638
Q 230 1299 323 995
Q 416 691 601 464
Q 787 237 1062 102
Q 1338 -32 1709 -32
Q 2029 -32 2313 112
Q 2598 256 2739 563
L 2752 563
L 2752 346
Q 2752 70 2697 -160
Q 2643 -390 2521 -553
Q 2400 -717 2214 -809
Q 2029 -902 1760 -902
Q 1626 -902 1478 -873
Q 1331 -845 1206 -781
Q 1082 -717 995 -614
Q 909 -512 902 -365
L 358 -365
Q 371 -634 499 -819
Q 627 -1005 822 -1120
Q 1018 -1235 1258 -1286
Q 1498 -1338 1728 -1338
Q 2522 -1338 2893 -934
Q 3264 -531 3264 282
z
M 1741 442
Q 1472 442 1293 554
Q 1114 666 1005 848
Q 896 1030 851 1254
Q 806 1478 806 1702
Q 806 1939 860 2156
Q 915 2374 1033 2540
Q 1152 2707 1337 2806
Q 1523 2906 1786 2906
Q 2042 2906 2221 2803
Q 2400 2701 2512 2531
Q 2624 2362 2675 2150
Q 2726 1939 2726 1722
Q 2726 1491 2672 1260
Q 2618 1030 2502 848
Q 2387 666 2198 554
Q 2010 442 1741 442
z
" transform="scale(0.015625)"/>
      <path id="HelveticaNeue-74" d="M 1165 3309
L 1165 4301
L 621 4301
L 621 3309
L 58 3309
L 58 2829
L 621 2829
L 621 723
Q 621 493 665 352
Q 710 211 803 134
Q 896 58 1046 29
Q 1197 0 1408 0
L 1824 0
L 1824 480
L 1574 480
Q 1446 480 1366 489
Q 1286 499 1241 531
Q 1197 563 1181 620
Q 1165 678 1165 774
L 1165 2829
L 1824 2829
L 1824 3309
L 1165 3309
z
" transform="scale(0.015625)"/>
     </defs>
     <use xlink:href="#HelveticaNeue-4d"/>
     <use xlink:href="#HelveticaNeue-63" transform="translate(87.099991 0)"/>
     <use xlink:href="#HelveticaNeue-4e" transform="translate(140.799988 0)"/>
     <use xlink:href="#HelveticaNeue-65" transform="translate(212.999969 0)"/>
     <use xlink:href="#HelveticaNeue-6d" transform="translate(266.699966 0)"/>
     <use xlink:href="#HelveticaNeue-61" transform="translate(351.999954 0)"/>
     <use xlink:href="#HelveticaNeue-72" transform="translate(405.699951 0)"/>
     <use xlink:href="#HelveticaNeue-20" transform="translate(438.999939 0)"/>
     <use xlink:href="#HelveticaNeue-67" transform="translate(466.799927 0)"/>
     <use xlink:href="#HelveticaNeue-61" transform="translate(524.199921 0)"/>
     <use xlink:href="#HelveticaNeue-74" transform="translate(577.899918 0)"/>
     <use xlink:href="#HelveticaNeue-65" transform="translate(609.399902 0)"/>
    </g>
   </g>
   <g id="text_15">
    <!-- shadow add -->
    <g style="fill: #1f77b4" transform="translate(338.888398 84.816) scale(0.085 -0.085)">
     <use xlink:href="#HelveticaNeue-73"/>
     <use xlink:href="#HelveticaNeue-68" transform="translate(49.999985 0)"/>
     <use xlink:href="#HelveticaNeue-61" transform="translate(105.599976 0)"/>
     <use xlink:href="#HelveticaNeue-64" transform="translate(159.299973 0)"/>
     <use xlink:href="#HelveticaNeue-6f" transform="translate(218.59996 0)"/>
     <use xlink:href="#HelveticaNeue-77" transform="translate(275.999954 0)"/>
     <use xlink:href="#HelveticaNeue-20" transform="translate(351.799942 0)"/>
     <use xlink:href="#HelveticaNeue-61" transform="translate(379.59993 0)"/>
     <use xlink:href="#HelveticaNeue-64" transform="translate(433.299927 0)"/>
     <use xlink:href="#HelveticaNeue-64" transform="translate(492.599915 0)"/>
    </g>
   </g>
   <g id="text_16">
    <!-- McNemar gate -->
    <g style="fill: #1f77b4" transform="translate(450.024102 84.816) scale(0.085 -0.085)">
     <use xlink:href="#HelveticaNeue-4d"/>
     <use xlink:href="#HelveticaNeue-63" transform="translate(87.099991 0)"/>
     <use xlink:href="#HelveticaNeue-4e" transform="translate(140.799988 0)"/>
     <use xlink:href="#HelveticaNeue-65" transform="translate(212.999969 0)"/>
     <use xlink:href="#HelveticaNeue-6d" transform="translate(266.699966 0)"/>
     <use xlink:href="#HelveticaNeue-61" transform="translate(351.999954 0)"/>
     <use xlink:href="#HelveticaNeue-72" transform="translate(405.699951 0)"/>
     <use xlink:href="#HelveticaNeue-20" transform="translate(438.999939 0)"/>
     <use xlink:href="#HelveticaNeue-67" transform="translate(466.799927 0)"/>
     <use xlink:href="#HelveticaNeue-61" transform="translate(524.199921 0)"/>
     <use xlink:href="#HelveticaNeue-74" transform="translate(577.899918 0)"/>
     <use xlink:href="#HelveticaNeue-65" transform="translate(609.399902 0)"/>
    </g>
   </g>
   <g id="text_17">
    <!-- McNemar gate -->
    <g style="fill: #1f77b4" transform="translate(565.886602 84.816) scale(0.085 -0.085)">
     <use xlink:href="#HelveticaNeue-4d"/>
     <use xlink:href="#HelveticaNeue-63" transform="translate(87.099991 0)"/>
     <use xlink:href="#HelveticaNeue-4e" transform="translate(140.799988 0)"/>
     <use xlink:href="#HelveticaNeue-65" transform="translate(212.999969 0)"/>
     <use xlink:href="#HelveticaNeue-6d" transform="translate(266.699966 0)"/>
     <use xlink:href="#HelveticaNeue-61" transform="translate(351.999954 0)"/>
     <use xlink:href="#HelveticaNeue-72" transform="translate(405.699951 0)"/>
     <use xlink:href="#HelveticaNeue-20" transform="translate(438.999939 0)"/>
     <use xlink:href="#HelveticaNeue-67" transform="translate(466.799927 0)"/>
     <use xlink:href="#HelveticaNeue-61" transform="translate(524.199921 0)"/>
     <use xlink:href="#HelveticaNeue-74" transform="translate(577.899918 0)"/>
     <use xlink:href="#HelveticaNeue-65" transform="translate(609.399902 0)"/>
    </g>
   </g>
   <g id="text_18">
    <!-- demote (gate fires in reverse on accumulated drift) -->
    <g style="fill: #8a3f00" transform="translate(261.485391 202.3488) scale(0.09 -0.09)">
     <defs>
      <path id="HelveticaNeue-28" d="M 1306 -1261
L 1722 -1261
Q 1267 -525 1072 198
Q 877 922 877 1728
Q 877 2515 1069 3232
Q 1261 3949 1722 4678
L 1306 4678
Q 806 4019 553 3251
Q 301 2483 301 1728
Q 301 1306 371 922
Q 442 538 573 173
Q 704 -192 889 -547
Q 1075 -902 1306 -1261
z
" transform="scale(0.015625)"/>
      <path id="HelveticaNeue-66" d="M 634 2829
L 634 0
L 1178 0
L 1178 2829
L 1818 2829
L 1818 3309
L 1178 3309
L 1178 3770
Q 1178 3987 1286 4064
Q 1395 4141 1594 4141
Q 1664 4141 1747 4131
Q 1830 4122 1901 4096
L 1901 4570
Q 1824 4595 1725 4608
Q 1626 4621 1549 4621
Q 1101 4621 867 4413
Q 634 4205 634 3802
L 634 3309
L 77 3309
L 77 2829
L 634 2829
z
" transform="scale(0.015625)"/>
      <path id="HelveticaNeue-69" d="M 986 3904
L 986 4570
L 442 4570
L 442 3904
L 986 3904
z
M 442 3309
L 442 0
L 986 0
L 986 3309
L 442 3309
z
" transform="scale(0.015625)"/>
      <path id="HelveticaNeue-6e" d="M 410 3309
L 410 0
L 954 0
L 954 1869
Q 954 2093 1014 2281
Q 1075 2470 1196 2611
Q 1318 2752 1500 2829
Q 1683 2906 1933 2906
Q 2246 2906 2425 2726
Q 2605 2547 2605 2240
L 2605 0
L 3149 0
L 3149 2176
Q 3149 2445 3094 2665
Q 3040 2886 2905 3046
Q 2771 3206 2553 3296
Q 2336 3386 2010 3386
Q 1274 3386 934 2784
L 922 2784
L 922 3309
L 410 3309
z
" transform="scale(0.015625)"/>
      <path id="HelveticaNeue-76" d="M 1901 0
L 3110 3309
L 2541 3309
L 1638 550
L 1626 550
L 698 3309
L 90 3309
L 1318 0
L 1901 0
z
" transform="scale(0.015625)"/>
      <path id="HelveticaNeue-75" d="M 3149 0
L 3149 3309
L 2605 3309
L 2605 1440
Q 2605 1216 2544 1027
Q 2483 838 2361 697
Q 2240 557 2057 480
Q 1875 403 1626 403
Q 1312 403 1133 582
Q 954 762 954 1069
L 954 3309
L 410 3309
L 410 1133
Q 410 864 464 643
Q 518 422 652 262
Q 787 102 1004 16
Q 1222 -70 1549 -70
Q 1914 -70 2182 74
Q 2451 218 2624 525
L 2637 525
L 2637 0
L 3149 0
z
" transform="scale(0.015625)"/>
      <path id="HelveticaNeue-6c" d="M 442 4570
L 442 0
L 986 0
L 986 4570
L 442 4570
z
" transform="scale(0.015625)"/>
      <path id="HelveticaNeue-29" d="M -58 -1261
L 352 -1261
Q 851 -602 1104 163
Q 1357 928 1357 1683
Q 1357 2106 1286 2490
Q 1216 2874 1085 3242
Q 954 3610 768 3965
Q 582 4320 352 4678
L -58 4678
Q 390 3942 585 3216
Q 781 2490 781 1683
Q 781 902 589 182
Q 397 -538 -58 -1261
z
" transform="scale(0.015625)"/>
     </defs>
     <use xlink:href="#HelveticaNeue-64"/>
     <use xlink:href="#HelveticaNeue-65" transform="translate(59.299988 0)"/>
     <use xlink:href="#HelveticaNeue-6d" transform="translate(112.999985 0)"/>
     <use xlink:href="#HelveticaNeue-6f" transform="translate(198.299973 0)"/>
     <use xlink:href="#HelveticaNeue-74" transform="translate(255.699966 0)"/>
     <use xlink:href="#HelveticaNeue-65" transform="translate(287.199951 0)"/>
     <use xlink:href="#HelveticaNeue-20" transform="translate(340.899948 0)"/>
     <use xlink:href="#HelveticaNeue-28" transform="translate(368.699936 0)"/>
     <use xlink:href="#HelveticaNeue-67" transform="translate(394.59993 0)"/>
     <use xlink:href="#HelveticaNeue-61" transform="translate(451.999924 0)"/>
     <use xlink:href="#HelveticaNeue-74" transform="translate(505.699921 0)"/>
     <use xlink:href="#HelveticaNeue-65" transform="translate(537.199905 0)"/>
     <use xlink:href="#HelveticaNeue-20" transform="translate(590.899902 0)"/>
     <use xlink:href="#HelveticaNeue-66" transform="translate(618.69989 0)"/>
     <use xlink:href="#HelveticaNeue-69" transform="translate(648.299881 0)"/>
     <use xlink:href="#HelveticaNeue-72" transform="translate(670.499878 0)"/>
     <use xlink:href="#HelveticaNeue-65" transform="translate(702.049866 0)"/>
     <use xlink:href="#HelveticaNeue-73" transform="translate(755.749863 0)"/>
     <use xlink:href="#HelveticaNeue-20" transform="translate(805.749847 0)"/>
     <use xlink:href="#HelveticaNeue-69" transform="translate(833.549835 0)"/>
     <use xlink:href="#HelveticaNeue-6e" transform="translate(855.749832 0)"/>
     <use xlink:href="#HelveticaNeue-20" transform="translate(911.349823 0)"/>
     <use xlink:href="#HelveticaNeue-72" transform="translate(939.149811 0)"/>
     <use xlink:href="#HelveticaNeue-65" transform="translate(970.699799 0)"/>
     <use xlink:href="#HelveticaNeue-76" transform="translate(1024.399796 0)"/>
     <use xlink:href="#HelveticaNeue-65" transform="translate(1074.39978 0)"/>
     <use xlink:href="#HelveticaNeue-72" transform="translate(1128.099777 0)"/>
     <use xlink:href="#HelveticaNeue-73" transform="translate(1161.399765 0)"/>
     <use xlink:href="#HelveticaNeue-65" transform="translate(1211.39975 0)"/>
     <use xlink:href="#HelveticaNeue-20" transform="translate(1265.099747 0)"/>
     <use xlink:href="#HelveticaNeue-6f" transform="translate(1292.899734 0)"/>
     <use xlink:href="#HelveticaNeue-6e" transform="translate(1350.299728 0)"/>
     <use xlink:href="#HelveticaNeue-20" transform="translate(1405.899719 0)"/>
     <use xlink:href="#HelveticaNeue-61" transform="translate(1433.699707 0)"/>
     <use xlink:href="#HelveticaNeue-63" transform="translate(1487.399704 0)"/>
     <use xlink:href="#HelveticaNeue-63" transform="translate(1541.099701 0)"/>
     <use xlink:href="#HelveticaNeue-75" transform="translate(1594.799698 0)"/>
     <use xlink:href="#HelveticaNeue-6d" transform="translate(1650.399689 0)"/>
     <use xlink:href="#HelveticaNeue-75" transform="translate(1735.699677 0)"/>
     <use xlink:href="#HelveticaNeue-6c" transform="translate(1791.299667 0)"/>
     <use xlink:href="#HelveticaNeue-61" transform="translate(1813.499664 0)"/>
     <use xlink:href="#HelveticaNeue-74" transform="translate(1867.199661 0)"/>
     <use xlink:href="#HelveticaNeue-65" transform="translate(1898.699646 0)"/>
     <use xlink:href="#HelveticaNeue-64" transform="translate(1952.399643 0)"/>
     <use xlink:href="#HelveticaNeue-20" transform="translate(2011.699631 0)"/>
     <use xlink:href="#HelveticaNeue-64" transform="translate(2039.499619 0)"/>
     <use xlink:href="#HelveticaNeue-72" transform="translate(2098.799606 0)"/>
     <use xlink:href="#HelveticaNeue-69" transform="translate(2132.099594 0)"/>
     <use xlink:href="#HelveticaNeue-66" transform="translate(2154.299591 0)"/>
     <use xlink:href="#HelveticaNeue-74" transform="translate(2183.899582 0)"/>
     <use xlink:href="#HelveticaNeue-29" transform="translate(2215.399567 0)"/>
    </g>
   </g>
   <g id="text_19">
    <!-- Rule R is structurally preserved as the safety floor in P1–P4 and as the circuit-breaker target in P5. -->
    <g style="fill: #444444" transform="translate(154.491914 252.2448) scale(0.095 -0.095)">
     <defs>
      <path id="HelveticaNeue-52" d="M 499 4570
L 499 0
L 1107 0
L 1107 1952
L 2592 1952
Q 2816 1952 2950 1885
Q 3085 1818 3168 1706
Q 3251 1594 3289 1443
Q 3328 1293 3354 1126
Q 3386 960 3392 787
Q 3398 614 3404 464
Q 3411 314 3433 192
Q 3456 70 3520 0
L 4198 0
Q 4102 115 4054 265
Q 4006 416 3980 582
Q 3955 749 3948 921
Q 3942 1094 3930 1261
Q 3910 1427 3875 1580
Q 3840 1734 3766 1859
Q 3693 1984 3568 2073
Q 3443 2163 3245 2202
L 3245 2214
Q 3661 2330 3849 2643
Q 4038 2957 4038 3373
Q 4038 3930 3670 4250
Q 3302 4570 2650 4570
L 499 4570
z
M 2374 2464
L 1107 2464
L 1107 4058
L 2618 4058
Q 3046 4058 3238 3840
Q 3430 3622 3430 3277
Q 3430 3027 3344 2870
Q 3258 2714 3114 2621
Q 2970 2528 2778 2496
Q 2586 2464 2374 2464
z
" transform="scale(0.015625)"/>
      <path id="HelveticaNeue-79" d="M 1709 -442
Q 1613 -685 1520 -851
Q 1427 -1018 1315 -1123
Q 1203 -1229 1065 -1277
Q 928 -1325 749 -1325
Q 653 -1325 557 -1312
Q 461 -1299 371 -1267
L 371 -768
Q 442 -800 534 -822
Q 627 -845 691 -845
Q 858 -845 970 -765
Q 1082 -685 1139 -538
L 1363 19
L 51 3309
L 666 3309
L 1632 602
L 1645 602
L 2573 3309
L 3149 3309
L 1709 -442
z
" transform="scale(0.015625)"/>
      <path id="HelveticaNeue-70" d="M 429 3309
L 429 -1261
L 973 -1261
L 973 442
L 986 442
Q 1075 294 1206 195
Q 1338 96 1485 38
Q 1632 -19 1782 -44
Q 1933 -70 2054 -70
Q 2432 -70 2717 64
Q 3002 198 3190 432
Q 3379 666 3472 979
Q 3565 1293 3565 1645
Q 3565 1997 3469 2310
Q 3373 2624 3184 2864
Q 2995 3104 2710 3245
Q 2426 3386 2042 3386
Q 1696 3386 1408 3261
Q 1120 3136 986 2861
L 973 2861
L 973 3309
L 429 3309
z
M 2989 1683
Q 2989 1440 2937 1209
Q 2886 979 2771 800
Q 2656 621 2467 512
Q 2278 403 1997 403
Q 1715 403 1516 508
Q 1318 614 1193 787
Q 1069 960 1011 1187
Q 954 1414 954 1658
Q 954 1888 1008 2112
Q 1062 2336 1184 2512
Q 1306 2688 1498 2797
Q 1690 2906 1965 2906
Q 2227 2906 2422 2803
Q 2618 2701 2742 2528
Q 2867 2355 2928 2134
Q 2989 1914 2989 1683
z
" transform="scale(0.015625)"/>
      <path id="HelveticaNeue-2013" d="M 0 2035
L 0 1523
L 3200 1523
L 3200 2035
L 0 2035
z
" transform="scale(0.015625)"/>
      <path id="HelveticaNeue-2d" d="M 320 2035
L 320 1523
L 2170 1523
L 2170 2035
L 320 2035
z
" transform="scale(0.015625)"/>
      <path id="HelveticaNeue-62" d="M 429 4570
L 429 0
L 973 0
L 973 442
L 986 442
Q 1075 294 1206 195
Q 1338 96 1485 38
Q 1632 -19 1782 -44
Q 1933 -70 2054 -70
Q 2432 -70 2717 64
Q 3002 198 3190 432
Q 3379 666 3472 979
Q 3565 1293 3565 1645
Q 3565 1997 3469 2310
Q 3373 2624 3184 2864
Q 2995 3104 2710 3245
Q 2426 3386 2042 3386
Q 1696 3386 1408 3261
Q 1120 3136 986 2861
L 973 2861
L 973 4570
L 429 4570
z
M 2989 1683
Q 2989 1440 2937 1209
Q 2886 979 2771 800
Q 2656 621 2467 512
Q 2278 403 1997 403
Q 1715 403 1516 508
Q 1318 614 1193 787
Q 1069 960 1011 1187
Q 954 1414 954 1658
Q 954 1888 1008 2112
Q 1062 2336 1184 2512
Q 1306 2688 1498 2797
Q 1690 2906 1965 2906
Q 2227 2906 2422 2803
Q 2618 2701 2742 2528
Q 2867 2355 2928 2134
Q 2989 1914 2989 1683
z
" transform="scale(0.015625)"/>
      <path id="HelveticaNeue-6b" d="M 442 4570
L 442 0
L 986 0
L 986 1254
L 1498 1728
L 2630 0
L 3322 0
L 1914 2106
L 3226 3309
L 2496 3309
L 986 1862
L 986 4570
L 442 4570
z
" transform="scale(0.015625)"/>
      <path id="HelveticaNeue-2e" d="M 531 710
L 531 0
L 1242 0
L 1242 710
L 531 710
z
" transform="scale(0.015625)"/>
     </defs>
     <use xlink:href="#HelveticaNeue-52"/>
     <use xlink:href="#HelveticaNeue-75" transform="translate(68.499985 0)"/>
     <use xlink:href="#HelveticaNeue-6c" transform="translate(124.099976 0)"/>
     <use xlink:href="#HelveticaNeue-65" transform="translate(146.299973 0)"/>
     <use xlink:href="#HelveticaNeue-20" transform="translate(199.999969 0)"/>
     <use xlink:href="#HelveticaNeue-52" transform="translate(227.799957 0)"/>
     <use xlink:href="#HelveticaNeue-20" transform="translate(296.299942 0)"/>
     <use xlink:href="#HelveticaNeue-69" transform="translate(324.09993 0)"/>
     <use xlink:href="#HelveticaNeue-73" transform="translate(346.299927 0)"/>
     <use xlink:href="#HelveticaNeue-20" transform="translate(396.299911 0)"/>
     <use xlink:href="#HelveticaNeue-73" transform="translate(424.099899 0)"/>
     <use xlink:href="#HelveticaNeue-74" transform="translate(474.099884 0)"/>
     <use xlink:href="#HelveticaNeue-72" transform="translate(505.599869 0)"/>
     <use xlink:href="#HelveticaNeue-75" transform="translate(538.899857 0)"/>
     <use xlink:href="#HelveticaNeue-63" transform="translate(594.499847 0)"/>
     <use xlink:href="#HelveticaNeue-74" transform="translate(648.199844 0)"/>
     <use xlink:href="#HelveticaNeue-75" transform="translate(679.699829 0)"/>
     <use xlink:href="#HelveticaNeue-72" transform="translate(735.29982 0)"/>
     <use xlink:href="#HelveticaNeue-61" transform="translate(768.599808 0)"/>
     <use xlink:href="#HelveticaNeue-6c" transform="translate(822.299805 0)"/>
     <use xlink:href="#HelveticaNeue-6c" transform="translate(844.499802 0)"/>
     <use xlink:href="#HelveticaNeue-79" transform="translate(866.699799 0)"/>
     <use xlink:href="#HelveticaNeue-20" transform="translate(916.699783 0)"/>
     <use xlink:href="#HelveticaNeue-70" transform="translate(944.499771 0)"/>
     <use xlink:href="#HelveticaNeue-72" transform="translate(1003.799759 0)"/>
     <use xlink:href="#HelveticaNeue-65" transform="translate(1035.349747 0)"/>
     <use xlink:href="#HelveticaNeue-73" transform="translate(1089.049744 0)"/>
     <use xlink:href="#HelveticaNeue-65" transform="translate(1139.049728 0)"/>
     <use xlink:href="#HelveticaNeue-72" transform="translate(1192.749725 0)"/>
     <use xlink:href="#HelveticaNeue-76" transform="translate(1226.049713 0)"/>
     <use xlink:href="#HelveticaNeue-65" transform="translate(1276.049698 0)"/>
     <use xlink:href="#HelveticaNeue-64" transform="translate(1329.749695 0)"/>
     <use xlink:href="#HelveticaNeue-20" transform="translate(1389.049683 0)"/>
     <use xlink:href="#HelveticaNeue-61" transform="translate(1416.84967 0)"/>
     <use xlink:href="#HelveticaNeue-73" transform="translate(1470.549667 0)"/>
     <use xlink:href="#HelveticaNeue-20" transform="translate(1520.549652 0)"/>
     <use xlink:href="#HelveticaNeue-74" transform="translate(1548.34964 0)"/>
     <use xlink:href="#HelveticaNeue-68" transform="translate(1579.849625 0)"/>
     <use xlink:href="#HelveticaNeue-65" transform="translate(1635.449615 0)"/>
     <use xlink:href="#HelveticaNeue-20" transform="translate(1689.149612 0)"/>
     <use xlink:href="#HelveticaNeue-73" transform="translate(1716.9496 0)"/>
     <use xlink:href="#HelveticaNeue-61" transform="translate(1766.949585 0)"/>
     <use xlink:href="#HelveticaNeue-66" transform="translate(1820.649582 0)"/>
     <use xlink:href="#HelveticaNeue-65" transform="translate(1850.249573 0)"/>
     <use xlink:href="#HelveticaNeue-74" transform="translate(1903.94957 0)"/>
     <use xlink:href="#HelveticaNeue-79" transform="translate(1935.449554 0)"/>
     <use xlink:href="#HelveticaNeue-20" transform="translate(1985.449539 0)"/>
     <use xlink:href="#HelveticaNeue-66" transform="translate(2013.249527 0)"/>
     <use xlink:href="#HelveticaNeue-6c" transform="translate(2042.849518 0)"/>
     <use xlink:href="#HelveticaNeue-6f" transform="translate(2065.049515 0)"/>
     <use xlink:href="#HelveticaNeue-6f" transform="translate(2122.449509 0)"/>
     <use xlink:href="#HelveticaNeue-72" transform="translate(2179.849503 0)"/>
     <use xlink:href="#HelveticaNeue-20" transform="translate(2213.14949 0)"/>
     <use xlink:href="#HelveticaNeue-69" transform="translate(2240.949478 0)"/>
     <use xlink:href="#HelveticaNeue-6e" transform="translate(2263.149475 0)"/>
     <use xlink:href="#HelveticaNeue-20" transform="translate(2318.749466 0)"/>
     <use xlink:href="#HelveticaNeue-50" transform="translate(2346.549454 0)"/>
     <use xlink:href="#HelveticaNeue-31" transform="translate(2411.349442 0)"/>
     <use xlink:href="#HelveticaNeue-2013" transform="translate(2466.949432 0)"/>
     <use xlink:href="#HelveticaNeue-50" transform="translate(2516.949417 0)"/>
     <use xlink:href="#HelveticaNeue-34" transform="translate(2581.749405 0)"/>
     <use xlink:href="#HelveticaNeue-20" transform="translate(2637.349396 0)"/>
     <use xlink:href="#HelveticaNeue-61" transform="translate(2665.149384 0)"/>
     <use xlink:href="#HelveticaNeue-6e" transform="translate(2718.84938 0)"/>
     <use xlink:href="#HelveticaNeue-64" transform="translate(2774.449371 0)"/>
     <use xlink:href="#HelveticaNeue-20" transform="translate(2833.749359 0)"/>
     <use xlink:href="#HelveticaNeue-61" transform="translate(2861.549347 0)"/>
     <use xlink:href="#HelveticaNeue-73" transform="translate(2915.249344 0)"/>
     <use xlink:href="#HelveticaNeue-20" transform="translate(2965.249329 0)"/>
     <use xlink:href="#HelveticaNeue-74" transform="translate(2993.049316 0)"/>
     <use xlink:href="#HelveticaNeue-68" transform="translate(3024.549301 0)"/>
     <use xlink:href="#HelveticaNeue-65" transform="translate(3080.149292 0)"/>
     <use xlink:href="#HelveticaNeue-20" transform="translate(3133.849289 0)"/>
     <use xlink:href="#HelveticaNeue-63" transform="translate(3161.649277 0)"/>
     <use xlink:href="#HelveticaNeue-69" transform="translate(3215.349274 0)"/>
     <use xlink:href="#HelveticaNeue-72" transform="translate(3237.549271 0)"/>
     <use xlink:href="#HelveticaNeue-63" transform="translate(3269.099258 0)"/>
     <use xlink:href="#HelveticaNeue-75" transform="translate(3322.799255 0)"/>
     <use xlink:href="#HelveticaNeue-69" transform="translate(3378.399246 0)"/>
     <use xlink:href="#HelveticaNeue-74" transform="translate(3400.599243 0)"/>
     <use xlink:href="#HelveticaNeue-2d" transform="translate(3432.099228 0)"/>
     <use xlink:href="#HelveticaNeue-62" transform="translate(3470.999222 0)"/>
     <use xlink:href="#HelveticaNeue-72" transform="translate(3530.29921 0)"/>
     <use xlink:href="#HelveticaNeue-65" transform="translate(3561.849197 0)"/>
     <use xlink:href="#HelveticaNeue-61" transform="translate(3615.549194 0)"/>
     <use xlink:href="#HelveticaNeue-6b" transform="translate(3669.249191 0)"/>
     <use xlink:href="#HelveticaNeue-65" transform="translate(3721.149185 0)"/>
     <use xlink:href="#HelveticaNeue-72" transform="translate(3774.849182 0)"/>
     <use xlink:href="#HelveticaNeue-20" transform="translate(3808.14917 0)"/>
     <use xlink:href="#HelveticaNeue-74" transform="translate(3835.949158 0)"/>
     <use xlink:href="#HelveticaNeue-61" transform="translate(3867.449142 0)"/>
     <use xlink:href="#HelveticaNeue-72" transform="translate(3921.149139 0)"/>
     <use xlink:href="#HelveticaNeue-67" transform="translate(3951.699127 0)"/>
     <use xlink:href="#HelveticaNeue-65" transform="translate(4009.099121 0)"/>
     <use xlink:href="#HelveticaNeue-74" transform="translate(4062.799118 0)"/>
     <use xlink:href="#HelveticaNeue-20" transform="translate(4094.299103 0)"/>
     <use xlink:href="#HelveticaNeue-69" transform="translate(4122.099091 0)"/>
     <use xlink:href="#HelveticaNeue-6e" transform="translate(4144.299088 0)"/>
     <use xlink:href="#HelveticaNeue-20" transform="translate(4199.899078 0)"/>
     <use xlink:href="#HelveticaNeue-50" transform="translate(4227.699066 0)"/>
     <use xlink:href="#HelveticaNeue-35" transform="translate(4292.499054 0)"/>
     <use xlink:href="#HelveticaNeue-2e" transform="translate(4348.099045 0)"/>
    </g>
   </g>
   <g id="text_20">
    <!-- Figure 5. The graduated-autonomy lifecycle. Solid arrows = advance; dashed arrows = demote. -->
    <g style="fill: #1a1a1f" transform="translate(128.569687 32.148) scale(0.11 -0.11)">
     <defs>
      <path id="HelveticaNeue-46" d="M 499 4570
L 499 0
L 1107 0
L 1107 2093
L 3206 2093
L 3206 2605
L 1107 2605
L 1107 4058
L 3501 4058
L 3501 4570
L 499 4570
z
" transform="scale(0.015625)"/>
      <path id="HelveticaNeue-54" d="M 1536 4058
L 1536 0
L 2144 0
L 2144 4058
L 3667 4058
L 3667 4570
L 13 4570
L 13 4058
L 1536 4058
z
" transform="scale(0.015625)"/>
      <path id="HelveticaNeue-53" d="M 3142 3232
L 3718 3232
Q 3706 3610 3574 3882
Q 3443 4154 3216 4333
Q 2989 4512 2688 4595
Q 2387 4678 2035 4678
Q 1722 4678 1424 4598
Q 1126 4518 892 4355
Q 659 4192 518 3939
Q 378 3686 378 3341
Q 378 3027 502 2819
Q 627 2611 835 2480
Q 1043 2349 1305 2269
Q 1568 2189 1840 2128
Q 2112 2067 2374 2009
Q 2637 1952 2845 1859
Q 3053 1766 3177 1619
Q 3302 1472 3302 1235
Q 3302 986 3200 826
Q 3098 666 2931 573
Q 2765 480 2557 441
Q 2349 403 2144 403
Q 1888 403 1645 467
Q 1402 531 1219 665
Q 1037 800 925 1008
Q 813 1216 813 1504
L 237 1504
Q 237 1088 387 784
Q 538 480 797 285
Q 1056 90 1398 -6
Q 1741 -102 2125 -102
Q 2438 -102 2755 -28
Q 3072 45 3328 208
Q 3584 371 3747 630
Q 3910 890 3910 1254
Q 3910 1594 3785 1818
Q 3661 2042 3453 2189
Q 3245 2336 2982 2422
Q 2720 2509 2448 2573
Q 2176 2637 1913 2691
Q 1651 2746 1443 2829
Q 1235 2912 1110 3043
Q 986 3174 986 3386
Q 986 3610 1072 3760
Q 1158 3910 1302 4000
Q 1446 4090 1632 4128
Q 1818 4166 2010 4166
Q 2483 4166 2787 3945
Q 3091 3725 3142 3232
z
" transform="scale(0.015625)"/>
      <path id="HelveticaNeue-3d" d="M 307 1190
L 307 755
L 3533 755
L 3533 1190
L 307 1190
z
M 3533 2048
L 3533 2483
L 307 2483
L 307 2048
L 3533 2048
z
" transform="scale(0.015625)"/>
      <path id="HelveticaNeue-3b" d="M 1242 2598
L 1242 3309
L 531 3309
L 531 2598
L 1242 2598
z
M 531 710
L 531 0
L 909 0
Q 915 -77 899 -166
Q 883 -256 838 -342
Q 794 -429 720 -502
Q 646 -576 538 -614
L 538 -934
Q 909 -826 1078 -563
Q 1248 -301 1242 64
L 1242 710
L 531 710
z
" transform="scale(0.015625)"/>
     </defs>
     <use xlink:href="#HelveticaNeue-46"/>
     <use xlink:href="#HelveticaNeue-69" transform="translate(57.399994 0)"/>
     <use xlink:href="#HelveticaNeue-67" transform="translate(79.599991 0)"/>
     <use xlink:href="#HelveticaNeue-75" transform="translate(136.999985 0)"/>
     <use xlink:href="#HelveticaNeue-72" transform="translate(192.599976 0)"/>
     <use xlink:href="#HelveticaNeue-65" transform="translate(224.149963 0)"/>
     <use xlink:href="#HelveticaNeue-20" transform="translate(277.84996 0)"/>
     <use xlink:href="#HelveticaNeue-35" transform="translate(305.649948 0)"/>
     <use xlink:href="#HelveticaNeue-2e" transform="translate(361.249939 0)"/>
     <use xlink:href="#HelveticaNeue-20" transform="translate(389.049927 0)"/>
     <use xlink:href="#HelveticaNeue-54" transform="translate(416.849915 0)"/>
     <use xlink:href="#HelveticaNeue-68" transform="translate(474.249908 0)"/>
     <use xlink:href="#HelveticaNeue-65" transform="translate(529.849899 0)"/>
     <use xlink:href="#HelveticaNeue-20" transform="translate(583.549896 0)"/>
     <use xlink:href="#HelveticaNeue-67" transform="translate(611.349884 0)"/>
     <use xlink:href="#HelveticaNeue-72" transform="translate(668.749878 0)"/>
     <use xlink:href="#HelveticaNeue-61" transform="translate(702.049866 0)"/>
     <use xlink:href="#HelveticaNeue-64" transform="translate(755.749863 0)"/>
     <use xlink:href="#HelveticaNeue-75" transform="translate(815.04985 0)"/>
     <use xlink:href="#HelveticaNeue-61" transform="translate(870.649841 0)"/>
     <use xlink:href="#HelveticaNeue-74" transform="translate(924.349838 0)"/>
     <use xlink:href="#HelveticaNeue-65" transform="translate(955.849823 0)"/>
     <use xlink:href="#HelveticaNeue-64" transform="translate(1009.54982 0)"/>
     <use xlink:href="#HelveticaNeue-2d" transform="translate(1068.849808 0)"/>
     <use xlink:href="#HelveticaNeue-61" transform="translate(1107.749802 0)"/>
     <use xlink:href="#HelveticaNeue-75" transform="translate(1161.449799 0)"/>
     <use xlink:href="#HelveticaNeue-74" transform="translate(1217.049789 0)"/>
     <use xlink:href="#HelveticaNeue-6f" transform="translate(1248.549774 0)"/>
     <use xlink:href="#HelveticaNeue-6e" transform="translate(1305.949768 0)"/>
     <use xlink:href="#HelveticaNeue-6f" transform="translate(1361.549759 0)"/>
     <use xlink:href="#HelveticaNeue-6d" transform="translate(1418.949753 0)"/>
     <use xlink:href="#HelveticaNeue-79" transform="translate(1504.249741 0)"/>
     <use xlink:href="#HelveticaNeue-20" transform="translate(1554.249725 0)"/>
     <use xlink:href="#HelveticaNeue-6c" transform="translate(1582.049713 0)"/>
     <use xlink:href="#HelveticaNeue-69" transform="translate(1604.24971 0)"/>
     <use xlink:href="#HelveticaNeue-66" transform="translate(1626.449707 0)"/>
     <use xlink:href="#HelveticaNeue-65" transform="translate(1656.049698 0)"/>
     <use xlink:href="#HelveticaNeue-63" transform="translate(1709.749695 0)"/>
     <use xlink:href="#HelveticaNeue-79" transform="translate(1763.449692 0)"/>
     <use xlink:href="#HelveticaNeue-63" transform="translate(1813.449677 0)"/>
     <use xlink:href="#HelveticaNeue-6c" transform="translate(1867.149673 0)"/>
     <use xlink:href="#HelveticaNeue-65" transform="translate(1889.34967 0)"/>
     <use xlink:href="#HelveticaNeue-2e" transform="translate(1943.049667 0)"/>
     <use xlink:href="#HelveticaNeue-20" transform="translate(1970.849655 0)"/>
     <use xlink:href="#HelveticaNeue-53" transform="translate(1998.649643 0)"/>
     <use xlink:href="#HelveticaNeue-6f" transform="translate(2063.449631 0)"/>
     <use xlink:href="#HelveticaNeue-6c" transform="translate(2120.849625 0)"/>
     <use xlink:href="#HelveticaNeue-69" transform="translate(2143.049622 0)"/>
     <use xlink:href="#HelveticaNeue-64" transform="translate(2165.249619 0)"/>
     <use xlink:href="#HelveticaNeue-20" transform="translate(2224.549606 0)"/>
     <use xlink:href="#HelveticaNeue-61" transform="translate(2252.349594 0)"/>
     <use xlink:href="#HelveticaNeue-72" transform="translate(2306.049591 0)"/>
     <use xlink:href="#HelveticaNeue-72" transform="translate(2339.349579 0)"/>
     <use xlink:href="#HelveticaNeue-6f" transform="translate(2370.899567 0)"/>
     <use xlink:href="#HelveticaNeue-77" transform="translate(2428.299561 0)"/>
     <use xlink:href="#HelveticaNeue-73" transform="translate(2504.099548 0)"/>
     <use xlink:href="#HelveticaNeue-20" transform="translate(2554.099533 0)"/>
     <use xlink:href="#HelveticaNeue-3d" transform="translate(2581.899521 0)"/>
     <use xlink:href="#HelveticaNeue-20" transform="translate(2641.899506 0)"/>
     <use xlink:href="#HelveticaNeue-61" transform="translate(2669.699493 0)"/>
     <use xlink:href="#HelveticaNeue-64" transform="translate(2723.39949 0)"/>
     <use xlink:href="#HelveticaNeue-76" transform="translate(2782.699478 0)"/>
     <use xlink:href="#HelveticaNeue-61" transform="translate(2832.699463 0)"/>
     <use xlink:href="#HelveticaNeue-6e" transform="translate(2886.39946 0)"/>
     <use xlink:href="#HelveticaNeue-63" transform="translate(2941.999451 0)"/>
     <use xlink:href="#HelveticaNeue-65" transform="translate(2995.699448 0)"/>
     <use xlink:href="#HelveticaNeue-3b" transform="translate(3049.399445 0)"/>
     <use xlink:href="#HelveticaNeue-20" transform="translate(3077.199432 0)"/>
     <use xlink:href="#HelveticaNeue-64" transform="translate(3104.99942 0)"/>
     <use xlink:href="#HelveticaNeue-61" transform="translate(3164.299408 0)"/>
     <use xlink:href="#HelveticaNeue-73" transform="translate(3217.999405 0)"/>
     <use xlink:href="#HelveticaNeue-68" transform="translate(3267.99939 0)"/>
     <use xlink:href="#HelveticaNeue-65" transform="translate(3323.59938 0)"/>
     <use xlink:href="#HelveticaNeue-64" transform="translate(3377.299377 0)"/>
     <use xlink:href="#HelveticaNeue-20" transform="translate(3436.599365 0)"/>
     <use xlink:href="#HelveticaNeue-61" transform="translate(3464.399353 0)"/>
     <use xlink:href="#HelveticaNeue-72" transform="translate(3518.09935 0)"/>
     <use xlink:href="#HelveticaNeue-72" transform="translate(3551.399338 0)"/>
     <use xlink:href="#HelveticaNeue-6f" transform="translate(3582.949326 0)"/>
     <use xlink:href="#HelveticaNeue-77" transform="translate(3640.349319 0)"/>
     <use xlink:href="#HelveticaNeue-73" transform="translate(3716.149307 0)"/>
     <use xlink:href="#HelveticaNeue-20" transform="translate(3766.149292 0)"/>
     <use xlink:href="#HelveticaNeue-3d" transform="translate(3793.94928 0)"/>
     <use xlink:href="#HelveticaNeue-20" transform="translate(3853.949265 0)"/>
     <use xlink:href="#HelveticaNeue-64" transform="translate(3881.749252 0)"/>
     <use xlink:href="#HelveticaNeue-65" transform="translate(3941.04924 0)"/>
     <use xlink:href="#HelveticaNeue-6d" transform="translate(3994.749237 0)"/>
     <use xlink:href="#HelveticaNeue-6f" transform="translate(4080.049225 0)"/>
     <use xlink:href="#HelveticaNeue-74" transform="translate(4137.449219 0)"/>
     <use xlink:href="#HelveticaNeue-65" transform="translate(4168.949203 0)"/>
     <use xlink:href="#HelveticaNeue-2e" transform="translate(4222.6492 0)"/>
    </g>
   </g>
  </g>
 </g>
 <defs>
  <clipPath id="p74061c1ebd">
   <rect x="7.2" y="7.2" width="725.4" height="277.2"/>
  </clipPath>
 </defs>
</svg>
