<?xml version="1.0" encoding="utf-8" standalone="no"?>
<!DOCTYPE svg PUBLIC "-//W3C//DTD SVG 1.1//EN"
  "http://www.w3.org/Graphics/SVG/1.1/DTD/svg11.dtd">
<svg xmlns:xlink="http://www.w3.org/1999/xlink" width="739.8pt" height="291.6pt" viewBox="0 0 739.8 291.6" xmlns="http://www.w3.org/2000/svg" version="1.1">
 <metadata>
  <rdf:RDF xmlns:dc="http://purl.org/dc/elements/1.1/" xmlns:cc="http://creativecommons.org/ns#" xmlns:rdf="http://www.w3.org/1999/02/22-rdf-syntax-ns#">
   <cc:Work>
    <dc:type rdf:resource="http://purl.org/dc/dcmitype/StillImage"/>
    <dc:date>2026-04-27T03:10:17.338533</dc:date>
    <dc:format>image/svg+xml</dc:format>
    <dc:creator>
     <cc:Agent>
      <dc:title>Matplotlib v3.10.9, https://matplotlib.org/</dc:title>
     </cc:Agent>
    </dc:creator>
   </cc:Work>
  </rdf:RDF>
 </metadata>
 <defs>
  <style type="text/css">*{stroke-linejoin: round; stroke-linecap: butt}</style>
 </defs>
 <g id="figure_1">
  <g id="patch_1">
   <path d="M 0 291.6 
L 739.8 291.6 
L 739.8 0 
L 0 0 
z
" style="fill: #ffffff"/>
  </g>
  <g id="axes_1">
   <g id="patch_2">
    <path d="M 29.86875 169.0848 
L 115.50625 169.0848 
Q 116.51375 169.0848 116.51375 167.976 
L 116.51375 112.536 
Q 116.51375 111.4272 115.50625 111.4272 
L 29.86875 111.4272 
Q 28.86125 111.4272 28.86125 112.536 
L 28.86125 167.976 
Q 28.86125 169.0848 29.86875 169.0848 
z
" clip-path="url(#pc6c4b27720)" style="fill: #f0f0f0; stroke: #333333; stroke-width: 1.5; stroke-linejoin: miter"/>
   </g>
   <g id="patch_3">
    <path d="M 145.73125 169.0848 
L 231.36875 169.0848 
Q 232.37625 169.0848 232.37625 167.976 
L 232.37625 112.536 
Q 232.37625 111.4272 231.36875 111.4272 
L 145.73125 111.4272 
Q 144.72375 111.4272 144.72375 112.536 
L 144.72375 167.976 
Q 144.72375 169.0848 145.73125 169.0848 
z
" clip-path="url(#pc6c4b27720)" style="fill: #f0f0f0; stroke: #333333; stroke-width: 1.5; stroke-linejoin: miter"/>
   </g>
   <g id="patch_4">
    <path d="M 261.59375 169.0848 
L 347.23125 169.0848 
Q 348.23875 169.0848 348.23875 167.976 
L 348.23875 112.536 
Q 348.23875 111.4272 347.23125 111.4272 
L 261.59375 111.4272 
Q 260.58625 111.4272 260.58625 112.536 
L 260.58625 167.976 
Q 260.58625 169.0848 261.59375 169.0848 
z
" clip-path="url(#pc6c4b27720)" style="fill: #f0f0f0; stroke: #333333; stroke-width: 1.5; stroke-linejoin: miter"/>
   </g>
   <g id="patch_5">
    <path d="M 377.45625 169.0848 
L 463.09375 169.0848 
Q 464.10125 169.0848 464.10125 167.976 
L 464.10125 112.536 
Q 464.10125 111.4272 463.09375 111.4272 
L 377.45625 111.4272 
Q 376.44875 111.4272 376.44875 112.536 
L 376.44875 167.976 
Q 376.44875 169.0848 377.45625 169.0848 
z
" clip-path="url(#pc6c4b27720)" style="fill: #f0f0f0; stroke: #333333; stroke-width: 1.5; stroke-linejoin: miter"/>
   </g>
   <g id="patch_6">
    <path d="M 493.31875 169.0848 
L 578.95625 169.0848 
Q 579.96375 169.0848 579.96375 167.976 
L 579.96375 112.536 
Q 579.96375 111.4272 578.95625 111.4272 
L 493.31875 111.4272 
Q 492.31125 111.4272 492.31125 112.536 
L 492.31125 167.976 
Q 492.31125 169.0848 493.31875 169.0848 
z
" clip-path="url(#pc6c4b27720)" style="fill: #f0f0f0; stroke: #333333; stroke-width: 1.5; stroke-linejoin: miter"/>
   </g>
   <g id="patch_7">
    <path d="M 609.18125 169.0848 
L 694.81875 169.0848 
Q 695.82625 169.0848 695.82625 167.976 
L 695.82625 112.536 
Q 695.82625 111.4272 694.81875 111.4272 
L 609.18125 111.4272 
Q 608.17375 111.4272 608.17375 112.536 
L 608.17375 167.976 
Q 608.17375 169.0848 609.18125 169.0848 
z
" clip-path="url(#pc6c4b27720)" style="fill: #f0f0f0; stroke: #333333; stroke-width: 1.5; stroke-linejoin: miter"/>
   </g>
   <g id="patch_8">
    <path d="M 120.026595 94.7952 
Q 130.619032 94.7952 139.422616 94.7952 
" clip-path="url(#pc6c4b27720)" style="fill: none; stroke: #1f77b4; stroke-width: 1.6; stroke-linecap: round"/>
    <path d="M 133.822616 91.9952 
L 139.422616 94.7952 
L 133.822616 97.5952 
" clip-path="url(#pc6c4b27720)" style="fill: none; stroke: #1f77b4; stroke-width: 1.6; stroke-linecap: round"/>
   </g>
   <g id="patch_9">
    <path d="M 235.889095 94.7952 
Q 246.481532 94.7952 255.285116 94.7952 
" clip-path="url(#pc6c4b27720)" style="fill: none; stroke: #1f77b4; stroke-width: 1.6; stroke-linecap: round"/>
    <path d="M 249.685116 91.9952 
L 255.285116 94.7952 
L 249.685116 97.5952 
" clip-path="url(#pc6c4b27720)" style="fill: none; stroke: #1f77b4; stroke-width: 1.6; stroke-linecap: round"/>
   </g>
   <g id="patch_10">
    <path d="M 351.751595 94.7952 
Q 362.344032 94.7952 371.147616 94.7952 
" clip-path="url(#pc6c4b27720)" style="fill: none; stroke: #1f77b4; stroke-width: 1.6; stroke-linecap: round"/>
    <path d="M 365.547616 91.9952 
L 371.147616 94.7952 
L 365.547616 97.5952 
" clip-path="url(#pc6c4b27720)" style="fill: none; stroke: #1f77b4; stroke-width: 1.6; stroke-linecap: round"/>
   </g>
   <g id="patch_11">
    <path d="M 467.614095 94.7952 
Q 478.206532 94.7952 487.010116 94.7952 
" clip-path="url(#pc6c4b27720)" style="fill: none; stroke: #1f77b4; stroke-width: 1.6; stroke-linecap: round"/>
    <path d="M 481.410116 91.9952 
L 487.010116 94.7952 
L 481.410116 97.5952 
" clip-path="url(#pc6c4b27720)" style="fill: none; stroke: #1f77b4; stroke-width: 1.6; stroke-linecap: round"/>
   </g>
   <g id="patch_12">
    <path d="M 583.476595 94.7952 
Q 594.069032 94.7952 602.872616 94.7952 
" clip-path="url(#pc6c4b27720)" style="fill: none; stroke: #1f77b4; stroke-width: 1.6; stroke-linecap: round"/>
    <path d="M 597.272616 91.9952 
L 602.872616 94.7952 
L 597.272616 97.5952 
" clip-path="url(#pc6c4b27720)" style="fill: none; stroke: #1f77b4; stroke-width: 1.6; stroke-linecap: round"/>
   </g>
   <g id="patch_13">
    <path d="M 141.210905 185.7168 
Q 130.618468 185.7168 121.36767 185.7168 
" clip-path="url(#pc6c4b27720)" style="fill: none; stroke-dasharray: 4.8,2.4; stroke-dashoffset: 0; stroke: #d62728; stroke-width: 1.2; stroke-linecap: round"/>
    <path d="M 126.16767 188.1168 
L 121.36767 185.7168 
L 126.16767 183.3168 
" clip-path="url(#pc6c4b27720)" style="fill: none; stroke-dasharray: 4.8,2.4; stroke-dashoffset: 0; stroke: #d62728; stroke-width: 1.2; stroke-linecap: round"/>
   </g>
   <g id="patch_14">
    <path d="M 257.073405 185.7168 
Q 246.480968 185.7168 237.23017 185.7168 
" clip-path="url(#pc6c4b27720)" style="fill: none; stroke-dasharray: 4.8,2.4; stroke-dashoffset: 0; stroke: #d62728; stroke-width: 1.2; stroke-linecap: round"/>
    <path d="M 242.03017 188.1168 
L 237.23017 185.7168 
L 242.03017 183.3168 
" clip-path="url(#pc6c4b27720)" style="fill: none; stroke-dasharray: 4.8,2.4; stroke-dashoffset: 0; stroke: #d62728; stroke-width: 1.2; stroke-linecap: round"/>
   </g>
   <g id="patch_15">
    <path d="M 372.935905 185.7168 
Q 362.343468 185.7168 353.09267 185.7168 
" clip-path="url(#pc6c4b27720)" style="fill: none; stroke-dasharray: 4.8,2.4; stroke-dashoffset: 0; stroke: #d62728; stroke-width: 1.2; stroke-linecap: round"/>
    <path d="M 357.89267 188.1168 
L 353.09267 185.7168 
L 357.89267 183.3168 
" clip-path="url(#pc6c4b27720)" style="fill: none; stroke-dasharray: 4.8,2.4; stroke-dashoffset: 0; stroke: #d62728; stroke-width: 1.2; stroke-linecap: round"/>
   </g>
   <g id="patch_16">
    <path d="M 488.798405 185.7168 
Q 478.205968 185.7168 468.95517 185.7168 
" clip-path="url(#pc6c4b27720)" style="fill: none; stroke-dasharray: 4.8,2.4; stroke-dashoffset: 0; stroke: #d62728; stroke-width: 1.2; stroke-linecap: round"/>
    <path d="M 473.75517 188.1168 
L 468.95517 185.7168 
L 473.75517 183.3168 
" clip-path="url(#pc6c4b27720)" style="fill: none; stroke-dasharray: 4.8,2.4; stroke-dashoffset: 0; stroke: #d62728; stroke-width: 1.2; stroke-linecap: round"/>
   </g>
   <g id="patch_17">
    <path d="M 604.660905 185.7168 
Q 594.068468 185.7168 584.81767 185.7168 
" clip-path="url(#pc6c4b27720)" style="fill: none; stroke-dasharray: 4.8,2.4; stroke-dashoffset: 0; stroke: #d62728; stroke-width: 1.2; stroke-linecap: round"/>
    <path d="M 589.61767 188.1168 
L 584.81767 185.7168 
L 589.61767 183.3168 
" clip-path="url(#pc6c4b27720)" style="fill: none; stroke-dasharray: 4.8,2.4; stroke-dashoffset: 0; stroke: #d62728; stroke-width: 1.2; stroke-linecap: round"/>
   </g>
   <g id="patch_18">
    <path d="M 24.83125 271.6488 
L 699.85625 271.6488 
Q 700.86375 271.6488 700.86375 270.54 
L 700.86375 234.504 
Q 700.86375 233.3952 699.85625 233.3952 
L 24.83125 233.3952 
Q 23.82375 233.3952 23.82375 234.504 
L 23.82375 270.54 
Q 23.82375 271.6488 24.83125 271.6488 
z
" clip-path="url(#pc6c4b27720)" style="fill: #fff8e1; stroke: #666666; stroke-linejoin: miter"/>
   </g>
   <g id="text_1">
    <!-- P0 -->
    <g transform="translate(64.829375 130.2768) scale(0.11 -0.11)">
     <defs>
      <path id="DejaVuSans-Bold-50" d="M 588 4666 
L 2584 4666 
Q 3475 4666 3951 4270 
Q 4428 3875 4428 3144 
Q 4428 2409 3951 2014 
Q 3475 1619 2584 1619 
L 1791 1619 
L 1791 0 
L 588 0 
L 588 4666 
z
M 1791 3794 
L 1791 2491 
L 2456 2491 
Q 2806 2491 2997 2661 
Q 3188 2831 3188 3144 
Q 3188 3456 2997 3625 
Q 2806 3794 2456 3794 
L 1791 3794 
z
" transform="scale(0.015625)"/>
      <path id="DejaVuSans-Bold-30" d="M 2944 2338 
Q 2944 3213 2780 3570 
Q 2616 3928 2228 3928 
Q 1841 3928 1675 3570 
Q 1509 3213 1509 2338 
Q 1509 1453 1675 1090 
Q 1841 728 2228 728 
Q 2613 728 2778 1090 
Q 2944 1453 2944 2338 
z
M 4147 2328 
Q 4147 1169 3647 539 
Q 3147 -91 2228 -91 
Q 1306 -91 806 539 
Q 306 1169 306 2328 
Q 306 3491 806 4120 
Q 1306 4750 2228 4750 
Q 3147 4750 3647 4120 
Q 4147 3491 4147 2328 
z
" transform="scale(0.015625)"/>
     </defs>
     <use xlink:href="#DejaVuSans-Bold-50"/>
     <use xlink:href="#DejaVuSans-Bold-30" transform="translate(73.291016 0)"/>
    </g>
   </g>
   <g id="text_2">
    <!-- RULE -->
    <g transform="translate(62.452969 152.4528) scale(0.085 -0.085)">
     <defs>
      <path id="DejaVuSansMono-52" d="M 2375 2203 
Q 2619 2141 2791 1967 
Q 2963 1794 3219 1275 
L 3853 0 
L 3175 0 
L 2619 1178 
Q 2378 1681 2186 1826 
Q 1994 1972 1684 1972 
L 1081 1972 
L 1081 0 
L 447 0 
L 447 4666 
L 1747 4666 
Q 2516 4666 2925 4319 
Q 3334 3972 3334 3316 
Q 3334 2853 3082 2561 
Q 2831 2269 2375 2203 
z
M 1081 4147 
L 1081 2491 
L 1772 2491 
Q 2225 2491 2447 2694 
Q 2669 2897 2669 3316 
Q 2669 3719 2433 3933 
Q 2197 4147 1747 4147 
L 1081 4147 
z
" transform="scale(0.015625)"/>
      <path id="DejaVuSansMono-55" d="M 459 1791 
L 459 4666 
L 1094 4666 
L 1094 1503 
Q 1094 1163 1112 1017 
Q 1131 872 1178 794 
Q 1278 609 1467 515 
Q 1656 422 1925 422 
Q 2197 422 2384 515 
Q 2572 609 2675 794 
Q 2722 872 2740 1015 
Q 2759 1159 2759 1497 
L 2759 4666 
L 3391 4666 
L 3391 1791 
Q 3391 1075 3302 773 
Q 3213 472 2994 275 
Q 2788 91 2522 0 
Q 2256 -91 1925 -91 
Q 1597 -91 1331 0 
Q 1066 91 856 275 
Q 641 469 550 776 
Q 459 1084 459 1791 
z
" transform="scale(0.015625)"/>
      <path id="DejaVuSansMono-4c" d="M 672 4666 
L 1306 4666 
L 1306 531 
L 3559 531 
L 3559 0 
L 672 0 
L 672 4666 
z
" transform="scale(0.015625)"/>
      <path id="DejaVuSansMono-45" d="M 616 4666 
L 3384 4666 
L 3384 4134 
L 1247 4134 
L 1247 2753 
L 3291 2753 
L 3291 2222 
L 1247 2222 
L 1247 531 
L 3444 531 
L 3444 0 
L 616 0 
L 616 4666 
z
" transform="scale(0.015625)"/>
     </defs>
     <use xlink:href="#DejaVuSansMono-52"/>
     <use xlink:href="#DejaVuSansMono-55" transform="translate(60.205078 0)"/>
     <use xlink:href="#DejaVuSansMono-4c" transform="translate(120.410156 0)"/>
     <use xlink:href="#DejaVuSansMono-45" transform="translate(180.615234 0)"/>
    </g>
   </g>
   <g id="text_3">
    <!-- P1 -->
    <g transform="translate(180.691875 130.2768) scale(0.11 -0.11)">
     <defs>
      <path id="DejaVuSans-Bold-31" d="M 750 831 
L 1813 831 
L 1813 3847 
L 722 3622 
L 722 4441 
L 1806 4666 
L 2950 4666 
L 2950 831 
L 4013 831 
L 4013 0 
L 750 0 
L 750 831 
z
" transform="scale(0.015625)"/>
     </defs>
     <use xlink:href="#DejaVuSans-Bold-50"/>
     <use xlink:href="#DejaVuSans-Bold-31" transform="translate(73.291016 0)"/>
    </g>
   </g>
   <g id="text_4">
    <!-- MODEL_SHADOW -->
    <g transform="translate(157.846406 152.4528) scale(0.085 -0.085)">
     <defs>
      <path id="DejaVuSansMono-4d" d="M 269 4666 
L 1113 4666 
L 1919 2291 
L 2731 4666 
L 3578 4666 
L 3578 0 
L 2994 0 
L 2994 4122 
L 2163 1663 
L 1684 1663 
L 850 4122 
L 850 0 
L 269 0 
L 269 4666 
z
" transform="scale(0.015625)"/>
      <path id="DejaVuSansMono-4f" d="M 2828 2328 
Q 2828 3356 2617 3797 
Q 2406 4238 1925 4238 
Q 1447 4238 1236 3797 
Q 1025 3356 1025 2328 
Q 1025 1303 1236 862 
Q 1447 422 1925 422 
Q 2406 422 2617 861 
Q 2828 1300 2828 2328 
z
M 3488 2328 
Q 3488 1109 3102 509 
Q 2716 -91 1925 -91 
Q 1134 -91 750 506 
Q 366 1103 366 2328 
Q 366 3550 752 4150 
Q 1138 4750 1925 4750 
Q 2716 4750 3102 4150 
Q 3488 3550 3488 2328 
z
" transform="scale(0.015625)"/>
      <path id="DejaVuSansMono-44" d="M 1363 519 
Q 2159 519 2475 911 
Q 2791 1303 2791 2328 
Q 2791 3363 2477 3755 
Q 2163 4147 1363 4147 
L 1063 4147 
L 1063 519 
L 1363 519 
z
M 1375 4666 
Q 2444 4666 2950 4097 
Q 3456 3528 3456 2328 
Q 3456 1134 2950 567 
Q 2444 0 1375 0 
L 428 0 
L 428 4666 
L 1375 4666 
z
" transform="scale(0.015625)"/>
      <path id="DejaVuSansMono-5f" d="M 3853 -1259 
L 3853 -1509 
L 0 -1509 
L 0 -1259 
L 3853 -1259 
z
" transform="scale(0.015625)"/>
      <path id="DejaVuSansMono-53" d="M 3163 4506 
L 3163 3866 
Q 2875 4050 2586 4144 
Q 2297 4238 2003 4238 
Q 1556 4238 1297 4030 
Q 1038 3822 1038 3469 
Q 1038 3159 1208 2996 
Q 1378 2834 1844 2725 
L 2175 2650 
Q 2831 2497 3131 2169 
Q 3431 1841 3431 1275 
Q 3431 609 3018 259 
Q 2606 -91 1819 -91 
Q 1491 -91 1159 -20 
Q 828 50 494 191 
L 494 863 
Q 853 634 1173 528 
Q 1494 422 1819 422 
Q 2297 422 2562 636 
Q 2828 850 2828 1234 
Q 2828 1584 2645 1768 
Q 2463 1953 2009 2053 
L 1672 2131 
Q 1022 2278 728 2575 
Q 434 2872 434 3372 
Q 434 3997 854 4373 
Q 1275 4750 1972 4750 
Q 2241 4750 2537 4689 
Q 2834 4628 3163 4506 
z
" transform="scale(0.015625)"/>
      <path id="DejaVuSansMono-48" d="M 428 4666 
L 1063 4666 
L 1063 2753 
L 2791 2753 
L 2791 4666 
L 3425 4666 
L 3425 0 
L 2791 0 
L 2791 2222 
L 1063 2222 
L 1063 0 
L 428 0 
L 428 4666 
z
" transform="scale(0.015625)"/>
      <path id="DejaVuSansMono-41" d="M 1925 4109 
L 1259 1722 
L 2591 1722 
L 1925 4109 
z
M 1544 4666 
L 2309 4666 
L 3738 0 
L 3084 0 
L 2741 1216 
L 1106 1216 
L 769 0 
L 116 0 
L 1544 4666 
z
" transform="scale(0.015625)"/>
      <path id="DejaVuSansMono-57" d="M 0 4666 
L 616 4666 
L 1063 878 
L 1594 3384 
L 2253 3384 
L 2791 872 
L 3238 4666 
L 3853 4666 
L 3156 0 
L 2559 0 
L 1925 2772 
L 1294 0 
L 697 0 
L 0 4666 
z
" transform="scale(0.015625)"/>
     </defs>
     <use xlink:href="#DejaVuSansMono-4d"/>
     <use xlink:href="#DejaVuSansMono-4f" transform="translate(60.205078 0)"/>
     <use xlink:href="#DejaVuSansMono-44" transform="translate(120.410156 0)"/>
     <use xlink:href="#DejaVuSansMono-45" transform="translate(180.615234 0)"/>
     <use xlink:href="#DejaVuSansMono-4c" transform="translate(240.820312 0)"/>
     <use xlink:href="#DejaVuSansMono-5f" transform="translate(301.025391 0)"/>
     <use xlink:href="#DejaVuSansMono-53" transform="translate(361.230469 0)"/>
     <use xlink:href="#DejaVuSansMono-48" transform="translate(421.435547 0)"/>
     <use xlink:href="#DejaVuSansMono-41" transform="translate(481.640625 0)"/>
     <use xlink:href="#DejaVuSansMono-44" transform="translate(541.845703 0)"/>
     <use xlink:href="#DejaVuSansMono-4f" transform="translate(602.050781 0)"/>
     <use xlink:href="#DejaVuSansMono-57" transform="translate(662.255859 0)"/>
    </g>
   </g>
   <g id="text_5">
    <!-- P2 -->
    <g transform="translate(296.554375 130.2768) scale(0.11 -0.11)">
     <defs>
      <path id="DejaVuSans-Bold-32" d="M 1844 884 
L 3897 884 
L 3897 0 
L 506 0 
L 506 884 
L 2209 2388 
Q 2438 2594 2547 2791 
Q 2656 2988 2656 3200 
Q 2656 3528 2436 3728 
Q 2216 3928 1850 3928 
Q 1569 3928 1234 3808 
Q 900 3688 519 3450 
L 519 4475 
Q 925 4609 1322 4679 
Q 1719 4750 2100 4750 
Q 2938 4750 3402 4381 
Q 3866 4013 3866 3353 
Q 3866 2972 3669 2642 
Q 3472 2313 2841 1759 
L 1844 884 
z
" transform="scale(0.015625)"/>
     </defs>
     <use xlink:href="#DejaVuSans-Bold-50"/>
     <use xlink:href="#DejaVuSans-Bold-32" transform="translate(73.291016 0)"/>
    </g>
   </g>
   <g id="text_6">
    <!-- MODEL_PRIMARY -->
    <g transform="translate(271.150273 152.4528) scale(0.085 -0.085)">
     <defs>
      <path id="DejaVuSansMono-50" d="M 1247 4147 
L 1247 2394 
L 1978 2394 
Q 2416 2394 2661 2625 
Q 2906 2856 2906 3272 
Q 2906 3688 2662 3917 
Q 2419 4147 1978 4147 
L 1247 4147 
z
M 616 4666 
L 1978 4666 
Q 2759 4666 3162 4311 
Q 3566 3956 3566 3272 
Q 3566 2581 3164 2228 
Q 2763 1875 1978 1875 
L 1247 1875 
L 1247 0 
L 616 0 
L 616 4666 
z
" transform="scale(0.015625)"/>
      <path id="DejaVuSansMono-49" d="M 628 4666 
L 3219 4666 
L 3219 4134 
L 2241 4134 
L 2241 531 
L 3219 531 
L 3219 0 
L 628 0 
L 628 531 
L 1606 531 
L 1606 4134 
L 628 4134 
L 628 4666 
z
" transform="scale(0.015625)"/>
      <path id="DejaVuSansMono-59" d="M 116 4666 
L 788 4666 
L 1925 2606 
L 3059 4666 
L 3738 4666 
L 2241 2094 
L 2241 0 
L 1606 0 
L 1606 2094 
L 116 4666 
z
" transform="scale(0.015625)"/>
     </defs>
     <use xlink:href="#DejaVuSansMono-4d"/>
     <use xlink:href="#DejaVuSansMono-4f" transform="translate(60.205078 0)"/>
     <use xlink:href="#DejaVuSansMono-44" transform="translate(120.410156 0)"/>
     <use xlink:href="#DejaVuSansMono-45" transform="translate(180.615234 0)"/>
     <use xlink:href="#DejaVuSansMono-4c" transform="translate(240.820312 0)"/>
     <use xlink:href="#DejaVuSansMono-5f" transform="translate(301.025391 0)"/>
     <use xlink:href="#DejaVuSansMono-50" transform="translate(361.230469 0)"/>
     <use xlink:href="#DejaVuSansMono-52" transform="translate(421.435547 0)"/>
     <use xlink:href="#DejaVuSansMono-49" transform="translate(481.640625 0)"/>
     <use xlink:href="#DejaVuSansMono-4d" transform="translate(541.845703 0)"/>
     <use xlink:href="#DejaVuSansMono-41" transform="translate(602.050781 0)"/>
     <use xlink:href="#DejaVuSansMono-52" transform="translate(662.255859 0)"/>
     <use xlink:href="#DejaVuSansMono-59" transform="translate(722.460938 0)"/>
    </g>
   </g>
   <g id="text_7">
    <!-- P3 -->
    <g transform="translate(412.416875 130.2768) scale(0.11 -0.11)">
     <defs>
      <path id="DejaVuSans-Bold-33" d="M 2981 2516 
Q 3453 2394 3698 2092 
Q 3944 1791 3944 1325 
Q 3944 631 3412 270 
Q 2881 -91 1863 -91 
Q 1503 -91 1142 -33 
Q 781 25 428 141 
L 428 1069 
Q 766 900 1098 814 
Q 1431 728 1753 728 
Q 2231 728 2486 893 
Q 2741 1059 2741 1369 
Q 2741 1688 2480 1852 
Q 2219 2016 1709 2016 
L 1228 2016 
L 1228 2791 
L 1734 2791 
Q 2188 2791 2409 2933 
Q 2631 3075 2631 3366 
Q 2631 3634 2415 3781 
Q 2200 3928 1806 3928 
Q 1516 3928 1219 3862 
Q 922 3797 628 3669 
L 628 4550 
Q 984 4650 1334 4700 
Q 1684 4750 2022 4750 
Q 2931 4750 3382 4451 
Q 3834 4153 3834 3553 
Q 3834 3144 3618 2883 
Q 3403 2622 2981 2516 
z
" transform="scale(0.015625)"/>
     </defs>
     <use xlink:href="#DejaVuSans-Bold-50"/>
     <use xlink:href="#DejaVuSans-Bold-33" transform="translate(73.291016 0)"/>
    </g>
   </g>
   <g id="text_8">
    <!-- ML_SHADOW -->
    <g transform="translate(397.247305 152.4528) scale(0.085 -0.085)">
     <use xlink:href="#DejaVuSansMono-4d"/>
     <use xlink:href="#DejaVuSansMono-4c" transform="translate(60.205078 0)"/>
     <use xlink:href="#DejaVuSansMono-5f" transform="translate(120.410156 0)"/>
     <use xlink:href="#DejaVuSansMono-53" transform="translate(180.615234 0)"/>
     <use xlink:href="#DejaVuSansMono-48" transform="translate(240.820312 0)"/>
     <use xlink:href="#DejaVuSansMono-41" transform="translate(301.025391 0)"/>
     <use xlink:href="#DejaVuSansMono-44" transform="translate(361.230469 0)"/>
     <use xlink:href="#DejaVuSansMono-4f" transform="translate(421.435547 0)"/>
     <use xlink:href="#DejaVuSansMono-57" transform="translate(481.640625 0)"/>
    </g>
   </g>
   <g id="text_9">
    <!-- P4 -->
    <g transform="translate(528.279375 130.2768) scale(0.11 -0.11)">
     <defs>
      <path id="DejaVuSans-Bold-34" d="M 2356 3675 
L 1038 1722 
L 2356 1722 
L 2356 3675 
z
M 2156 4666 
L 3494 4666 
L 3494 1722 
L 4159 1722 
L 4159 850 
L 3494 850 
L 3494 0 
L 2356 0 
L 2356 850 
L 288 850 
L 288 1881 
L 2156 4666 
z
" transform="scale(0.015625)"/>
     </defs>
     <use xlink:href="#DejaVuSans-Bold-50"/>
     <use xlink:href="#DejaVuSans-Bold-34" transform="translate(73.291016 0)"/>
    </g>
   </g>
   <g id="text_10">
    <!-- ML_W_FALLBACK -->
    <g transform="translate(502.875273 152.4528) scale(0.085 -0.085)">
     <defs>
      <path id="DejaVuSansMono-46" d="M 728 4666 
L 3475 4666 
L 3475 4134 
L 1363 4134 
L 1363 2759 
L 3278 2759 
L 3278 2228 
L 1363 2228 
L 1363 0 
L 728 0 
L 728 4666 
z
" transform="scale(0.015625)"/>
      <path id="DejaVuSansMono-42" d="M 1153 2228 
L 1153 519 
L 1900 519 
Q 2450 519 2684 711 
Q 2919 903 2919 1344 
Q 2919 1800 2672 2014 
Q 2425 2228 1900 2228 
L 1153 2228 
z
M 1153 4147 
L 1153 2741 
L 1888 2741 
Q 2344 2741 2548 2916 
Q 2753 3091 2753 3481 
Q 2753 3834 2551 3990 
Q 2350 4147 1888 4147 
L 1153 4147 
z
M 519 4666 
L 1900 4666 
Q 2616 4666 3003 4356 
Q 3391 4047 3391 3481 
Q 3391 3053 3186 2806 
Q 2981 2559 2572 2497 
Q 3031 2428 3292 2104 
Q 3553 1781 3553 1281 
Q 3553 647 3137 323 
Q 2722 0 1900 0 
L 519 0 
L 519 4666 
z
" transform="scale(0.015625)"/>
      <path id="DejaVuSansMono-43" d="M 3353 166 
Q 3113 38 2859 -26 
Q 2606 -91 2322 -91 
Q 1425 -91 929 543 
Q 434 1178 434 2328 
Q 434 3472 932 4111 
Q 1431 4750 2322 4750 
Q 2606 4750 2859 4686 
Q 3113 4622 3353 4494 
L 3353 3847 
Q 3122 4038 2856 4138 
Q 2591 4238 2322 4238 
Q 1706 4238 1400 3763 
Q 1094 3288 1094 2328 
Q 1094 1372 1400 897 
Q 1706 422 2322 422 
Q 2597 422 2861 522 
Q 3125 622 3353 813 
L 3353 166 
z
" transform="scale(0.015625)"/>
      <path id="DejaVuSansMono-4b" d="M 428 4666 
L 1063 4666 
L 1063 2591 
L 3034 4666 
L 3775 4666 
L 1959 2759 
L 3828 0 
L 3066 0 
L 1544 2338 
L 1063 1825 
L 1063 0 
L 428 0 
L 428 4666 
z
" transform="scale(0.015625)"/>
     </defs>
     <use xlink:href="#DejaVuSansMono-4d"/>
     <use xlink:href="#DejaVuSansMono-4c" transform="translate(60.205078 0)"/>
     <use xlink:href="#DejaVuSansMono-5f" transform="translate(120.410156 0)"/>
     <use xlink:href="#DejaVuSansMono-57" transform="translate(180.615234 0)"/>
     <use xlink:href="#DejaVuSansMono-5f" transform="translate(240.820312 0)"/>
     <use xlink:href="#DejaVuSansMono-46" transform="translate(301.025391 0)"/>
     <use xlink:href="#DejaVuSansMono-41" transform="translate(361.230469 0)"/>
     <use xlink:href="#DejaVuSansMono-4c" transform="translate(421.435547 0)"/>
     <use xlink:href="#DejaVuSansMono-4c" transform="translate(481.640625 0)"/>
     <use xlink:href="#DejaVuSansMono-42" transform="translate(541.845703 0)"/>
     <use xlink:href="#DejaVuSansMono-41" transform="translate(602.050781 0)"/>
     <use xlink:href="#DejaVuSansMono-43" transform="translate(662.255859 0)"/>
     <use xlink:href="#DejaVuSansMono-4b" transform="translate(722.460938 0)"/>
    </g>
   </g>
   <g id="text_11">
    <!-- P5 -->
    <g transform="translate(644.141875 130.2768) scale(0.11 -0.11)">
     <defs>
      <path id="DejaVuSans-Bold-35" d="M 678 4666 
L 3669 4666 
L 3669 3781 
L 1638 3781 
L 1638 3059 
Q 1775 3097 1914 3117 
Q 2053 3138 2203 3138 
Q 3056 3138 3531 2711 
Q 4006 2284 4006 1522 
Q 4006 766 3489 337 
Q 2972 -91 2053 -91 
Q 1656 -91 1267 -14 
Q 878 63 494 219 
L 494 1166 
Q 875 947 1217 837 
Q 1559 728 1863 728 
Q 2300 728 2551 942 
Q 2803 1156 2803 1522 
Q 2803 1891 2551 2103 
Q 2300 2316 1863 2316 
Q 1603 2316 1309 2248 
Q 1016 2181 678 2041 
L 678 4666 
z
" transform="scale(0.015625)"/>
     </defs>
     <use xlink:href="#DejaVuSans-Bold-50"/>
     <use xlink:href="#DejaVuSans-Bold-35" transform="translate(73.291016 0)"/>
    </g>
   </g>
   <g id="text_12">
    <!-- ML_PRIMARY -->
    <g transform="translate(626.413672 152.4528) scale(0.085 -0.085)">
     <use xlink:href="#DejaVuSansMono-4d"/>
     <use xlink:href="#DejaVuSansMono-4c" transform="translate(60.205078 0)"/>
     <use xlink:href="#DejaVuSansMono-5f" transform="translate(120.410156 0)"/>
     <use xlink:href="#DejaVuSansMono-50" transform="translate(180.615234 0)"/>
     <use xlink:href="#DejaVuSansMono-52" transform="translate(240.820312 0)"/>
     <use xlink:href="#DejaVuSansMono-49" transform="translate(301.025391 0)"/>
     <use xlink:href="#DejaVuSansMono-4d" transform="translate(361.230469 0)"/>
     <use xlink:href="#DejaVuSansMono-41" transform="translate(421.435547 0)"/>
     <use xlink:href="#DejaVuSansMono-52" transform="translate(481.640625 0)"/>
     <use xlink:href="#DejaVuSansMono-59" transform="translate(541.845703 0)"/>
    </g>
   </g>
   <g id="text_13">
    <!-- shadow add -->
    <g style="fill: #1f77b4" transform="translate(104.981289 84.816) scale(0.085 -0.085)">
     <defs>
      <path id="DejaVuSans-73" d="M 2834 3397 
L 2834 2853 
Q 2591 2978 2328 3040 
Q 2066 3103 1784 3103 
Q 1356 3103 1142 2972 
Q 928 2841 928 2578 
Q 928 2378 1081 2264 
Q 1234 2150 1697 2047 
L 1894 2003 
Q 2506 1872 2764 1633 
Q 3022 1394 3022 966 
Q 3022 478 2636 193 
Q 2250 -91 1575 -91 
Q 1294 -91 989 -36 
Q 684 19 347 128 
L 347 722 
Q 666 556 975 473 
Q 1284 391 1588 391 
Q 1994 391 2212 530 
Q 2431 669 2431 922 
Q 2431 1156 2273 1281 
Q 2116 1406 1581 1522 
L 1381 1569 
Q 847 1681 609 1914 
Q 372 2147 372 2553 
Q 372 3047 722 3315 
Q 1072 3584 1716 3584 
Q 2034 3584 2315 3537 
Q 2597 3491 2834 3397 
z
" transform="scale(0.015625)"/>
      <path id="DejaVuSans-68" d="M 3513 2113 
L 3513 0 
L 2938 0 
L 2938 2094 
Q 2938 2591 2744 2837 
Q 2550 3084 2163 3084 
Q 1697 3084 1428 2787 
Q 1159 2491 1159 1978 
L 1159 0 
L 581 0 
L 581 4863 
L 1159 4863 
L 1159 2956 
Q 1366 3272 1645 3428 
Q 1925 3584 2291 3584 
Q 2894 3584 3203 3211 
Q 3513 2838 3513 2113 
z
" transform="scale(0.015625)"/>
      <path id="DejaVuSans-61" d="M 2194 1759 
Q 1497 1759 1228 1600 
Q 959 1441 959 1056 
Q 959 750 1161 570 
Q 1363 391 1709 391 
Q 2188 391 2477 730 
Q 2766 1069 2766 1631 
L 2766 1759 
L 2194 1759 
z
M 3341 1997 
L 3341 0 
L 2766 0 
L 2766 531 
Q 2569 213 2275 61 
Q 1981 -91 1556 -91 
Q 1019 -91 701 211 
Q 384 513 384 1019 
Q 384 1609 779 1909 
Q 1175 2209 1959 2209 
L 2766 2209 
L 2766 2266 
Q 2766 2663 2505 2880 
Q 2244 3097 1772 3097 
Q 1472 3097 1187 3025 
Q 903 2953 641 2809 
L 641 3341 
Q 956 3463 1253 3523 
Q 1550 3584 1831 3584 
Q 2591 3584 2966 3190 
Q 3341 2797 3341 1997 
z
" transform="scale(0.015625)"/>
      <path id="DejaVuSans-64" d="M 2906 2969 
L 2906 4863 
L 3481 4863 
L 3481 0 
L 2906 0 
L 2906 525 
Q 2725 213 2448 61 
Q 2172 -91 1784 -91 
Q 1150 -91 751 415 
Q 353 922 353 1747 
Q 353 2572 751 3078 
Q 1150 3584 1784 3584 
Q 2172 3584 2448 3432 
Q 2725 3281 2906 2969 
z
M 947 1747 
Q 947 1113 1208 752 
Q 1469 391 1925 391 
Q 2381 391 2643 752 
Q 2906 1113 2906 1747 
Q 2906 2381 2643 2742 
Q 2381 3103 1925 3103 
Q 1469 3103 1208 2742 
Q 947 2381 947 1747 
z
" transform="scale(0.015625)"/>
      <path id="DejaVuSans-6f" d="M 1959 3097 
Q 1497 3097 1228 2736 
Q 959 2375 959 1747 
Q 959 1119 1226 758 
Q 1494 397 1959 397 
Q 2419 397 2687 759 
Q 2956 1122 2956 1747 
Q 2956 2369 2687 2733 
Q 2419 3097 1959 3097 
z
M 1959 3584 
Q 2709 3584 3137 3096 
Q 3566 2609 3566 1747 
Q 3566 888 3137 398 
Q 2709 -91 1959 -91 
Q 1206 -91 779 398 
Q 353 888 353 1747 
Q 353 2609 779 3096 
Q 1206 3584 1959 3584 
z
" transform="scale(0.015625)"/>
      <path id="DejaVuSans-77" d="M 269 3500 
L 844 3500 
L 1563 769 
L 2278 3500 
L 2956 3500 
L 3675 769 
L 4391 3500 
L 4966 3500 
L 4050 0 
L 3372 0 
L 2619 2869 
L 1863 0 
L 1184 0 
L 269 3500 
z
" transform="scale(0.015625)"/>
      <path id="DejaVuSans-20" transform="scale(0.015625)"/>
     </defs>
     <use xlink:href="#DejaVuSans-73"/>
     <use xlink:href="#DejaVuSans-68" transform="translate(52.099609 0)"/>
     <use xlink:href="#DejaVuSans-61" transform="translate(115.478516 0)"/>
     <use xlink:href="#DejaVuSans-64" transform="translate(176.757812 0)"/>
     <use xlink:href="#DejaVuSans-6f" transform="translate(240.234375 0)"/>
     <use xlink:href="#DejaVuSans-77" transform="translate(301.416016 0)"/>
     <use xlink:href="#DejaVuSans-20" transform="translate(383.203125 0)"/>
     <use xlink:href="#DejaVuSans-61" transform="translate(414.990234 0)"/>
     <use xlink:href="#DejaVuSans-64" transform="translate(476.269531 0)"/>
     <use xlink:href="#DejaVuSans-64" transform="translate(539.746094 0)"/>
    </g>
   </g>
   <g id="text_14">
    <!-- McNemar gate -->
    <g style="fill: #1f77b4" transform="translate(215.257031 84.816) scale(0.085 -0.085)">
     <defs>
      <path id="DejaVuSans-4d" d="M 628 4666 
L 1569 4666 
L 2759 1491 
L 3956 4666 
L 4897 4666 
L 4897 0 
L 4281 0 
L 4281 4097 
L 3078 897 
L 2444 897 
L 1241 4097 
L 1241 0 
L 628 0 
L 628 4666 
z
" transform="scale(0.015625)"/>
      <path id="DejaVuSans-63" d="M 3122 3366 
L 3122 2828 
Q 2878 2963 2633 3030 
Q 2388 3097 2138 3097 
Q 1578 3097 1268 2742 
Q 959 2388 959 1747 
Q 959 1106 1268 751 
Q 1578 397 2138 397 
Q 2388 397 2633 464 
Q 2878 531 3122 666 
L 3122 134 
Q 2881 22 2623 -34 
Q 2366 -91 2075 -91 
Q 1284 -91 818 406 
Q 353 903 353 1747 
Q 353 2603 823 3093 
Q 1294 3584 2113 3584 
Q 2378 3584 2631 3529 
Q 2884 3475 3122 3366 
z
" transform="scale(0.015625)"/>
      <path id="DejaVuSans-4e" d="M 628 4666 
L 1478 4666 
L 3547 763 
L 3547 4666 
L 4159 4666 
L 4159 0 
L 3309 0 
L 1241 3903 
L 1241 0 
L 628 0 
L 628 4666 
z
" transform="scale(0.015625)"/>
      <path id="DejaVuSans-65" d="M 3597 1894 
L 3597 1613 
L 953 1613 
Q 991 1019 1311 708 
Q 1631 397 2203 397 
Q 2534 397 2845 478 
Q 3156 559 3463 722 
L 3463 178 
Q 3153 47 2828 -22 
Q 2503 -91 2169 -91 
Q 1331 -91 842 396 
Q 353 884 353 1716 
Q 353 2575 817 3079 
Q 1281 3584 2069 3584 
Q 2775 3584 3186 3129 
Q 3597 2675 3597 1894 
z
M 3022 2063 
Q 3016 2534 2758 2815 
Q 2500 3097 2075 3097 
Q 1594 3097 1305 2825 
Q 1016 2553 972 2059 
L 3022 2063 
z
" transform="scale(0.015625)"/>
      <path id="DejaVuSans-6d" d="M 3328 2828 
Q 3544 3216 3844 3400 
Q 4144 3584 4550 3584 
Q 5097 3584 5394 3201 
Q 5691 2819 5691 2113 
L 5691 0 
L 5113 0 
L 5113 2094 
Q 5113 2597 4934 2840 
Q 4756 3084 4391 3084 
Q 3944 3084 3684 2787 
Q 3425 2491 3425 1978 
L 3425 0 
L 2847 0 
L 2847 2094 
Q 2847 2600 2669 2842 
Q 2491 3084 2119 3084 
Q 1678 3084 1418 2786 
Q 1159 2488 1159 1978 
L 1159 0 
L 581 0 
L 581 3500 
L 1159 3500 
L 1159 2956 
Q 1356 3278 1631 3431 
Q 1906 3584 2284 3584 
Q 2666 3584 2933 3390 
Q 3200 3197 3328 2828 
z
" transform="scale(0.015625)"/>
      <path id="DejaVuSans-72" d="M 2631 2963 
Q 2534 3019 2420 3045 
Q 2306 3072 2169 3072 
Q 1681 3072 1420 2755 
Q 1159 2438 1159 1844 
L 1159 0 
L 581 0 
L 581 3500 
L 1159 3500 
L 1159 2956 
Q 1341 3275 1631 3429 
Q 1922 3584 2338 3584 
Q 2397 3584 2469 3576 
Q 2541 3569 2628 3553 
L 2631 2963 
z
" transform="scale(0.015625)"/>
      <path id="DejaVuSans-67" d="M 2906 1791 
Q 2906 2416 2648 2759 
Q 2391 3103 1925 3103 
Q 1463 3103 1205 2759 
Q 947 2416 947 1791 
Q 947 1169 1205 825 
Q 1463 481 1925 481 
Q 2391 481 2648 825 
Q 2906 1169 2906 1791 
z
M 3481 434 
Q 3481 -459 3084 -895 
Q 2688 -1331 1869 -1331 
Q 1566 -1331 1297 -1286 
Q 1028 -1241 775 -1147 
L 775 -588 
Q 1028 -725 1275 -790 
Q 1522 -856 1778 -856 
Q 2344 -856 2625 -561 
Q 2906 -266 2906 331 
L 2906 616 
Q 2728 306 2450 153 
Q 2172 0 1784 0 
Q 1141 0 747 490 
Q 353 981 353 1791 
Q 353 2603 747 3093 
Q 1141 3584 1784 3584 
Q 2172 3584 2450 3431 
Q 2728 3278 2906 2969 
L 2906 3500 
L 3481 3500 
L 3481 434 
z
" transform="scale(0.015625)"/>
      <path id="DejaVuSans-74" d="M 1172 4494 
L 1172 3500 
L 2356 3500 
L 2356 3053 
L 1172 3053 
L 1172 1153 
Q 1172 725 1289 603 
Q 1406 481 1766 481 
L 2356 481 
L 2356 0 
L 1766 0 
Q 1100 0 847 248 
Q 594 497 594 1153 
L 594 3053 
L 172 3053 
L 172 3500 
L 594 3500 
L 594 4494 
L 1172 4494 
z
" transform="scale(0.015625)"/>
     </defs>
     <use xlink:href="#DejaVuSans-4d"/>
     <use xlink:href="#DejaVuSans-63" transform="translate(86.279297 0)"/>
     <use xlink:href="#DejaVuSans-4e" transform="translate(141.259766 0)"/>
     <use xlink:href="#DejaVuSans-65" transform="translate(216.064453 0)"/>
     <use xlink:href="#DejaVuSans-6d" transform="translate(277.587891 0)"/>
     <use xlink:href="#DejaVuSans-61" transform="translate(375 0)"/>
     <use xlink:href="#DejaVuSans-72" transform="translate(436.279297 0)"/>
     <use xlink:href="#DejaVuSans-20" transform="translate(477.392578 0)"/>
     <use xlink:href="#DejaVuSans-67" transform="translate(509.179688 0)"/>
     <use xlink:href="#DejaVuSans-61" transform="translate(572.65625 0)"/>
     <use xlink:href="#DejaVuSans-74" transform="translate(633.935547 0)"/>
     <use xlink:href="#DejaVuSans-65" transform="translate(673.144531 0)"/>
    </g>
   </g>
   <g id="text_15">
    <!-- shadow add -->
    <g style="fill: #1f77b4" transform="translate(336.706289 84.816) scale(0.085 -0.085)">
     <use xlink:href="#DejaVuSans-73"/>
     <use xlink:href="#DejaVuSans-68" transform="translate(52.099609 0)"/>
     <use xlink:href="#DejaVuSans-61" transform="translate(115.478516 0)"/>
     <use xlink:href="#DejaVuSans-64" transform="translate(176.757812 0)"/>
     <use xlink:href="#DejaVuSans-6f" transform="translate(240.234375 0)"/>
     <use xlink:href="#DejaVuSans-77" transform="translate(301.416016 0)"/>
     <use xlink:href="#DejaVuSans-20" transform="translate(383.203125 0)"/>
     <use xlink:href="#DejaVuSans-61" transform="translate(414.990234 0)"/>
     <use xlink:href="#DejaVuSans-64" transform="translate(476.269531 0)"/>
     <use xlink:href="#DejaVuSans-64" transform="translate(539.746094 0)"/>
    </g>
   </g>
   <g id="text_16">
    <!-- McNemar gate -->
    <g style="fill: #1f77b4" transform="translate(446.982031 84.816) scale(0.085 -0.085)">
     <use xlink:href="#DejaVuSans-4d"/>
     <use xlink:href="#DejaVuSans-63" transform="translate(86.279297 0)"/>
     <use xlink:href="#DejaVuSans-4e" transform="translate(141.259766 0)"/>
     <use xlink:href="#DejaVuSans-65" transform="translate(216.064453 0)"/>
     <use xlink:href="#DejaVuSans-6d" transform="translate(277.587891 0)"/>
     <use xlink:href="#DejaVuSans-61" transform="translate(375 0)"/>
     <use xlink:href="#DejaVuSans-72" transform="translate(436.279297 0)"/>
     <use xlink:href="#DejaVuSans-20" transform="translate(477.392578 0)"/>
     <use xlink:href="#DejaVuSans-67" transform="translate(509.179688 0)"/>
     <use xlink:href="#DejaVuSans-61" transform="translate(572.65625 0)"/>
     <use xlink:href="#DejaVuSans-74" transform="translate(633.935547 0)"/>
     <use xlink:href="#DejaVuSans-65" transform="translate(673.144531 0)"/>
    </g>
   </g>
   <g id="text_17">
    <!-- McNemar gate -->
    <g style="fill: #1f77b4" transform="translate(562.844531 84.816) scale(0.085 -0.085)">
     <use xlink:href="#DejaVuSans-4d"/>
     <use xlink:href="#DejaVuSans-63" transform="translate(86.279297 0)"/>
     <use xlink:href="#DejaVuSans-4e" transform="translate(141.259766 0)"/>
     <use xlink:href="#DejaVuSans-65" transform="translate(216.064453 0)"/>
     <use xlink:href="#DejaVuSans-6d" transform="translate(277.587891 0)"/>
     <use xlink:href="#DejaVuSans-61" transform="translate(375 0)"/>
     <use xlink:href="#DejaVuSans-72" transform="translate(436.279297 0)"/>
     <use xlink:href="#DejaVuSans-20" transform="translate(477.392578 0)"/>
     <use xlink:href="#DejaVuSans-67" transform="translate(509.179688 0)"/>
     <use xlink:href="#DejaVuSans-61" transform="translate(572.65625 0)"/>
     <use xlink:href="#DejaVuSans-74" transform="translate(633.935547 0)"/>
     <use xlink:href="#DejaVuSans-65" transform="translate(673.144531 0)"/>
    </g>
   </g>
   <g id="text_18">
    <!-- demote (gate fires in reverse on accumulated drift) -->
    <g style="fill: #d62728" transform="translate(246.363281 202.3488) scale(0.09 -0.09)">
     <defs>
      <path id="DejaVuSans-Oblique-64" d="M 2675 525 
Q 2444 222 2128 65 
Q 1813 -91 1428 -91 
Q 903 -91 598 267 
Q 294 625 294 1247 
Q 294 1766 478 2236 
Q 663 2706 1013 3078 
Q 1244 3325 1534 3454 
Q 1825 3584 2144 3584 
Q 2481 3584 2739 3421 
Q 2997 3259 3138 2956 
L 3513 4863 
L 4091 4863 
L 3144 0 
L 2566 0 
L 2675 525 
z
M 891 1350 
Q 891 897 1095 644 
Q 1300 391 1663 391 
Q 1931 391 2161 520 
Q 2391 650 2566 903 
Q 2750 1166 2856 1509 
Q 2963 1853 2963 2188 
Q 2963 2622 2758 2865 
Q 2553 3109 2194 3109 
Q 1922 3109 1687 2981 
Q 1453 2853 1288 2613 
Q 1106 2353 998 2009 
Q 891 1666 891 1350 
z
" transform="scale(0.015625)"/>
      <path id="DejaVuSans-Oblique-65" d="M 3078 2063 
Q 3088 2113 3092 2166 
Q 3097 2219 3097 2272 
Q 3097 2653 2873 2875 
Q 2650 3097 2266 3097 
Q 1838 3097 1509 2826 
Q 1181 2556 1013 2059 
L 3078 2063 
z
M 3578 1613 
L 903 1613 
Q 884 1494 878 1425 
Q 872 1356 872 1306 
Q 872 872 1139 634 
Q 1406 397 1894 397 
Q 2269 397 2603 481 
Q 2938 566 3225 728 
L 3116 159 
Q 2806 34 2476 -28 
Q 2147 -91 1806 -91 
Q 1078 -91 686 257 
Q 294 606 294 1247 
Q 294 1794 489 2264 
Q 684 2734 1063 3103 
Q 1306 3334 1642 3459 
Q 1978 3584 2356 3584 
Q 2950 3584 3301 3228 
Q 3653 2872 3653 2272 
Q 3653 2128 3634 1964 
Q 3616 1800 3578 1613 
z
" transform="scale(0.015625)"/>
      <path id="DejaVuSans-Oblique-6d" d="M 5747 2113 
L 5338 0 
L 4763 0 
L 5166 2094 
Q 5191 2228 5203 2325 
Q 5216 2422 5216 2491 
Q 5216 2772 5059 2928 
Q 4903 3084 4622 3084 
Q 4203 3084 3875 2770 
Q 3547 2456 3450 1953 
L 3066 0 
L 2491 0 
L 2900 2094 
Q 2925 2209 2937 2307 
Q 2950 2406 2950 2484 
Q 2950 2769 2794 2926 
Q 2638 3084 2363 3084 
Q 1938 3084 1609 2770 
Q 1281 2456 1184 1953 
L 800 0 
L 225 0 
L 909 3500 
L 1484 3500 
L 1375 2956 
Q 1609 3263 1923 3423 
Q 2238 3584 2597 3584 
Q 2978 3584 3223 3384 
Q 3469 3184 3519 2828 
Q 3781 3197 4126 3390 
Q 4472 3584 4856 3584 
Q 5306 3584 5551 3325 
Q 5797 3066 5797 2591 
Q 5797 2488 5784 2364 
Q 5772 2241 5747 2113 
z
" transform="scale(0.015625)"/>
      <path id="DejaVuSans-Oblique-6f" d="M 1625 -91 
Q 1009 -91 651 289 
Q 294 669 294 1325 
Q 294 1706 417 2101 
Q 541 2497 738 2766 
Q 1047 3184 1428 3384 
Q 1809 3584 2291 3584 
Q 2888 3584 3255 3212 
Q 3622 2841 3622 2241 
Q 3622 1825 3500 1412 
Q 3378 1000 3181 728 
Q 2875 309 2494 109 
Q 2113 -91 1625 -91 
z
M 891 1344 
Q 891 869 1089 633 
Q 1288 397 1691 397 
Q 2269 397 2648 901 
Q 3028 1406 3028 2181 
Q 3028 2634 2825 2865 
Q 2622 3097 2228 3097 
Q 1903 3097 1650 2945 
Q 1397 2794 1197 2484 
Q 1050 2253 970 1956 
Q 891 1659 891 1344 
z
" transform="scale(0.015625)"/>
      <path id="DejaVuSans-Oblique-74" d="M 2706 3500 
L 2619 3053 
L 1472 3053 
L 1100 1153 
Q 1081 1047 1072 975 
Q 1063 903 1063 863 
Q 1063 663 1183 572 
Q 1303 481 1569 481 
L 2150 481 
L 2053 0 
L 1503 0 
Q 991 0 739 200 
Q 488 400 488 806 
Q 488 878 497 964 
Q 506 1050 525 1153 
L 897 3053 
L 409 3053 
L 500 3500 
L 978 3500 
L 1172 4494 
L 1747 4494 
L 1556 3500 
L 2706 3500 
z
" transform="scale(0.015625)"/>
      <path id="DejaVuSans-Oblique-20" transform="scale(0.015625)"/>
      <path id="DejaVuSans-Oblique-28" d="M 2731 4856 
Q 1903 3822 1495 2892 
Q 1088 1963 1088 1100 
Q 1088 606 1206 120 
Q 1325 -366 1563 -844 
L 1063 -844 
Q 775 -306 634 201 
Q 494 709 494 1197 
Q 494 2125 923 3036 
Q 1353 3947 2222 4856 
L 2731 4856 
z
" transform="scale(0.015625)"/>
      <path id="DejaVuSans-Oblique-67" d="M 3816 3500 
L 3219 434 
Q 3047 -456 2561 -893 
Q 2075 -1331 1253 -1331 
Q 950 -1331 690 -1286 
Q 431 -1241 206 -1147 
L 313 -588 
Q 525 -725 762 -790 
Q 1000 -856 1269 -856 
Q 1816 -856 2167 -557 
Q 2519 -259 2631 300 
L 2681 563 
Q 2441 288 2122 144 
Q 1803 0 1434 0 
Q 903 0 598 351 
Q 294 703 294 1319 
Q 294 1803 478 2267 
Q 663 2731 997 3091 
Q 1219 3328 1514 3456 
Q 1809 3584 2131 3584 
Q 2484 3584 2746 3420 
Q 3009 3256 3138 2956 
L 3238 3500 
L 3816 3500 
z
M 2950 2216 
Q 2950 2641 2750 2872 
Q 2550 3103 2181 3103 
Q 1953 3103 1747 3012 
Q 1541 2922 1394 2759 
Q 1156 2491 1023 2127 
Q 891 1763 891 1375 
Q 891 944 1092 712 
Q 1294 481 1672 481 
Q 2219 481 2584 976 
Q 2950 1472 2950 2216 
z
" transform="scale(0.015625)"/>
      <path id="DejaVuSans-Oblique-61" d="M 3438 1997 
L 3047 0 
L 2472 0 
L 2578 531 
Q 2325 219 2001 64 
Q 1678 -91 1281 -91 
Q 834 -91 548 182 
Q 263 456 263 884 
Q 263 1497 752 1853 
Q 1241 2209 2100 2209 
L 2900 2209 
L 2931 2363 
Q 2938 2388 2941 2417 
Q 2944 2447 2944 2509 
Q 2944 2788 2717 2942 
Q 2491 3097 2081 3097 
Q 1800 3097 1504 3025 
Q 1209 2953 897 2809 
L 997 3341 
Q 1322 3463 1633 3523 
Q 1944 3584 2234 3584 
Q 2853 3584 3176 3315 
Q 3500 3047 3500 2534 
Q 3500 2431 3484 2292 
Q 3469 2153 3438 1997 
z
M 2816 1759 
L 2241 1759 
Q 1534 1759 1195 1570 
Q 856 1381 856 984 
Q 856 709 1029 553 
Q 1203 397 1509 397 
Q 1978 397 2328 733 
Q 2678 1069 2791 1631 
L 2816 1759 
z
" transform="scale(0.015625)"/>
      <path id="DejaVuSans-Oblique-66" d="M 3059 4863 
L 2969 4384 
L 2419 4384 
Q 2106 4384 1964 4261 
Q 1822 4138 1753 3809 
L 1691 3500 
L 2638 3500 
L 2553 3053 
L 1606 3053 
L 1013 0 
L 434 0 
L 1031 3053 
L 481 3053 
L 563 3500 
L 1113 3500 
L 1159 3744 
Q 1278 4363 1576 4613 
Q 1875 4863 2516 4863 
L 3059 4863 
z
" transform="scale(0.015625)"/>
      <path id="DejaVuSans-Oblique-69" d="M 1172 4863 
L 1747 4863 
L 1606 4134 
L 1031 4134 
L 1172 4863 
z
M 909 3500 
L 1484 3500 
L 800 0 
L 225 0 
L 909 3500 
z
" transform="scale(0.015625)"/>
      <path id="DejaVuSans-Oblique-72" d="M 2853 2969 
Q 2766 3016 2653 3041 
Q 2541 3066 2413 3066 
Q 1953 3066 1609 2717 
Q 1266 2369 1153 1784 
L 800 0 
L 225 0 
L 909 3500 
L 1484 3500 
L 1375 2956 
Q 1603 3259 1920 3421 
Q 2238 3584 2597 3584 
Q 2691 3584 2781 3573 
Q 2872 3563 2963 3538 
L 2853 2969 
z
" transform="scale(0.015625)"/>
      <path id="DejaVuSans-Oblique-73" d="M 3200 3397 
L 3091 2853 
Q 2863 2978 2609 3040 
Q 2356 3103 2088 3103 
Q 1634 3103 1373 2948 
Q 1113 2794 1113 2528 
Q 1113 2219 1719 2053 
Q 1766 2041 1788 2034 
L 1972 1978 
Q 2547 1819 2739 1644 
Q 2931 1469 2931 1166 
Q 2931 609 2489 259 
Q 2047 -91 1331 -91 
Q 1053 -91 747 -37 
Q 441 16 72 128 
L 184 722 
Q 500 559 806 475 
Q 1113 391 1394 391 
Q 1816 391 2080 572 
Q 2344 753 2344 1031 
Q 2344 1331 1650 1516 
L 1591 1531 
L 1394 1581 
Q 956 1697 753 1886 
Q 550 2075 550 2369 
Q 550 2928 970 3256 
Q 1391 3584 2113 3584 
Q 2397 3584 2667 3537 
Q 2938 3491 3200 3397 
z
" transform="scale(0.015625)"/>
      <path id="DejaVuSans-Oblique-6e" d="M 3566 2113 
L 3156 0 
L 2578 0 
L 2988 2091 
Q 3016 2238 3031 2350 
Q 3047 2463 3047 2528 
Q 3047 2791 2881 2937 
Q 2716 3084 2419 3084 
Q 1956 3084 1622 2776 
Q 1288 2469 1184 1941 
L 800 0 
L 225 0 
L 903 3500 
L 1478 3500 
L 1363 2950 
Q 1603 3253 1940 3418 
Q 2278 3584 2650 3584 
Q 3113 3584 3367 3334 
Q 3622 3084 3622 2631 
Q 3622 2519 3608 2391 
Q 3594 2263 3566 2113 
z
" transform="scale(0.015625)"/>
      <path id="DejaVuSans-Oblique-76" d="M 459 3500 
L 1069 3500 
L 1581 525 
L 3256 3500 
L 3866 3500 
L 1875 0 
L 1100 0 
L 459 3500 
z
" transform="scale(0.015625)"/>
      <path id="DejaVuSans-Oblique-63" d="M 3431 3366 
L 3316 2797 
Q 3109 2947 2876 3022 
Q 2644 3097 2394 3097 
Q 2119 3097 1870 3000 
Q 1622 2903 1453 2725 
Q 1184 2453 1037 2087 
Q 891 1722 891 1331 
Q 891 859 1127 628 
Q 1363 397 1844 397 
Q 2081 397 2348 469 
Q 2616 541 2906 684 
L 2797 116 
Q 2547 13 2283 -39 
Q 2019 -91 1741 -91 
Q 1044 -91 669 257 
Q 294 606 294 1253 
Q 294 1797 489 2255 
Q 684 2713 1069 3078 
Q 1331 3328 1684 3456 
Q 2038 3584 2456 3584 
Q 2700 3584 2940 3529 
Q 3181 3475 3431 3366 
z
" transform="scale(0.015625)"/>
      <path id="DejaVuSans-Oblique-75" d="M 428 1388 
L 838 3500 
L 1416 3500 
L 1006 1409 
Q 975 1256 961 1147 
Q 947 1038 947 966 
Q 947 700 1109 554 
Q 1272 409 1569 409 
Q 2031 409 2368 721 
Q 2706 1034 2809 1563 
L 3194 3500 
L 3769 3500 
L 3091 0 
L 2516 0 
L 2631 550 
Q 2388 244 2052 76 
Q 1716 -91 1338 -91 
Q 878 -91 622 161 
Q 366 413 366 863 
Q 366 956 381 1097 
Q 397 1238 428 1388 
z
" transform="scale(0.015625)"/>
      <path id="DejaVuSans-Oblique-6c" d="M 1172 4863 
L 1747 4863 
L 800 0 
L 225 0 
L 1172 4863 
z
" transform="scale(0.015625)"/>
      <path id="DejaVuSans-Oblique-29" d="M -397 -844 
Q 434 191 840 1120 
Q 1247 2050 1247 2913 
Q 1247 3406 1130 3892 
Q 1013 4378 775 4856 
L 1275 4856 
Q 1563 4316 1703 3812 
Q 1844 3309 1844 2822 
Q 1844 1891 1411 973 
Q 978 56 116 -844 
L -397 -844 
z
" transform="scale(0.015625)"/>
     </defs>
     <use xlink:href="#DejaVuSans-Oblique-64"/>
     <use xlink:href="#DejaVuSans-Oblique-65" transform="translate(63.476562 0)"/>
     <use xlink:href="#DejaVuSans-Oblique-6d" transform="translate(125 0)"/>
     <use xlink:href="#DejaVuSans-Oblique-6f" transform="translate(222.412109 0)"/>
     <use xlink:href="#DejaVuSans-Oblique-74" transform="translate(283.59375 0)"/>
     <use xlink:href="#DejaVuSans-Oblique-65" transform="translate(322.802734 0)"/>
     <use xlink:href="#DejaVuSans-Oblique-20" transform="translate(384.326172 0)"/>
     <use xlink:href="#DejaVuSans-Oblique-28" transform="translate(416.113281 0)"/>
     <use xlink:href="#DejaVuSans-Oblique-67" transform="translate(455.126953 0)"/>
     <use xlink:href="#DejaVuSans-Oblique-61" transform="translate(518.603516 0)"/>
     <use xlink:href="#DejaVuSans-Oblique-74" transform="translate(579.882812 0)"/>
     <use xlink:href="#DejaVuSans-Oblique-65" transform="translate(619.091797 0)"/>
     <use xlink:href="#DejaVuSans-Oblique-20" transform="translate(680.615234 0)"/>
     <use xlink:href="#DejaVuSans-Oblique-66" transform="translate(712.402344 0)"/>
     <use xlink:href="#DejaVuSans-Oblique-69" transform="translate(747.607422 0)"/>
     <use xlink:href="#DejaVuSans-Oblique-72" transform="translate(775.390625 0)"/>
     <use xlink:href="#DejaVuSans-Oblique-65" transform="translate(816.503906 0)"/>
     <use xlink:href="#DejaVuSans-Oblique-73" transform="translate(878.027344 0)"/>
     <use xlink:href="#DejaVuSans-Oblique-20" transform="translate(930.126953 0)"/>
     <use xlink:href="#DejaVuSans-Oblique-69" transform="translate(961.914062 0)"/>
     <use xlink:href="#DejaVuSans-Oblique-6e" transform="translate(989.697266 0)"/>
     <use xlink:href="#DejaVuSans-Oblique-20" transform="translate(1053.076172 0)"/>
     <use xlink:href="#DejaVuSans-Oblique-72" transform="translate(1084.863281 0)"/>
     <use xlink:href="#DejaVuSans-Oblique-65" transform="translate(1125.976562 0)"/>
     <use xlink:href="#DejaVuSans-Oblique-76" transform="translate(1187.5 0)"/>
     <use xlink:href="#DejaVuSans-Oblique-65" transform="translate(1246.679688 0)"/>
     <use xlink:href="#DejaVuSans-Oblique-72" transform="translate(1308.203125 0)"/>
     <use xlink:href="#DejaVuSans-Oblique-73" transform="translate(1349.316406 0)"/>
     <use xlink:href="#DejaVuSans-Oblique-65" transform="translate(1401.416016 0)"/>
     <use xlink:href="#DejaVuSans-Oblique-20" transform="translate(1462.939453 0)"/>
     <use xlink:href="#DejaVuSans-Oblique-6f" transform="translate(1494.726562 0)"/>
     <use xlink:href="#DejaVuSans-Oblique-6e" transform="translate(1555.908203 0)"/>
     <use xlink:href="#DejaVuSans-Oblique-20" transform="translate(1619.287109 0)"/>
     <use xlink:href="#DejaVuSans-Oblique-61" transform="translate(1651.074219 0)"/>
     <use xlink:href="#DejaVuSans-Oblique-63" transform="translate(1712.353516 0)"/>
     <use xlink:href="#DejaVuSans-Oblique-63" transform="translate(1767.333984 0)"/>
     <use xlink:href="#DejaVuSans-Oblique-75" transform="translate(1822.314453 0)"/>
     <use xlink:href="#DejaVuSans-Oblique-6d" transform="translate(1885.693359 0)"/>
     <use xlink:href="#DejaVuSans-Oblique-75" transform="translate(1983.105469 0)"/>
     <use xlink:href="#DejaVuSans-Oblique-6c" transform="translate(2046.484375 0)"/>
     <use xlink:href="#DejaVuSans-Oblique-61" transform="translate(2074.267578 0)"/>
     <use xlink:href="#DejaVuSans-Oblique-74" transform="translate(2135.546875 0)"/>
     <use xlink:href="#DejaVuSans-Oblique-65" transform="translate(2174.755859 0)"/>
     <use xlink:href="#DejaVuSans-Oblique-64" transform="translate(2236.279297 0)"/>
     <use xlink:href="#DejaVuSans-Oblique-20" transform="translate(2299.755859 0)"/>
     <use xlink:href="#DejaVuSans-Oblique-64" transform="translate(2331.542969 0)"/>
     <use xlink:href="#DejaVuSans-Oblique-72" transform="translate(2395.019531 0)"/>
     <use xlink:href="#DejaVuSans-Oblique-69" transform="translate(2436.132812 0)"/>
     <use xlink:href="#DejaVuSans-Oblique-66" transform="translate(2463.916016 0)"/>
     <use xlink:href="#DejaVuSans-Oblique-74" transform="translate(2499.121094 0)"/>
     <use xlink:href="#DejaVuSans-Oblique-29" transform="translate(2538.330078 0)"/>
    </g>
   </g>
   <g id="text_19">
    <!-- Rule R is structurally preserved as the safety floor in P1–P4 and as the circuit-breaker target in P5. -->
    <g style="fill: #444444" transform="translate(128.466367 252.2448) scale(0.095 -0.095)">
     <defs>
      <path id="DejaVuSans-52" d="M 2841 2188 
Q 3044 2119 3236 1894 
Q 3428 1669 3622 1275 
L 4263 0 
L 3584 0 
L 2988 1197 
Q 2756 1666 2539 1819 
Q 2322 1972 1947 1972 
L 1259 1972 
L 1259 0 
L 628 0 
L 628 4666 
L 2053 4666 
Q 2853 4666 3247 4331 
Q 3641 3997 3641 3322 
Q 3641 2881 3436 2590 
Q 3231 2300 2841 2188 
z
M 1259 4147 
L 1259 2491 
L 2053 2491 
Q 2509 2491 2742 2702 
Q 2975 2913 2975 3322 
Q 2975 3731 2742 3939 
Q 2509 4147 2053 4147 
L 1259 4147 
z
" transform="scale(0.015625)"/>
      <path id="DejaVuSans-75" d="M 544 1381 
L 544 3500 
L 1119 3500 
L 1119 1403 
Q 1119 906 1312 657 
Q 1506 409 1894 409 
Q 2359 409 2629 706 
Q 2900 1003 2900 1516 
L 2900 3500 
L 3475 3500 
L 3475 0 
L 2900 0 
L 2900 538 
Q 2691 219 2414 64 
Q 2138 -91 1772 -91 
Q 1169 -91 856 284 
Q 544 659 544 1381 
z
M 1991 3584 
L 1991 3584 
z
" transform="scale(0.015625)"/>
      <path id="DejaVuSans-6c" d="M 603 4863 
L 1178 4863 
L 1178 0 
L 603 0 
L 603 4863 
z
" transform="scale(0.015625)"/>
      <path id="DejaVuSans-69" d="M 603 3500 
L 1178 3500 
L 1178 0 
L 603 0 
L 603 3500 
z
M 603 4863 
L 1178 4863 
L 1178 4134 
L 603 4134 
L 603 4863 
z
" transform="scale(0.015625)"/>
      <path id="DejaVuSans-79" d="M 2059 -325 
Q 1816 -950 1584 -1140 
Q 1353 -1331 966 -1331 
L 506 -1331 
L 506 -850 
L 844 -850 
Q 1081 -850 1212 -737 
Q 1344 -625 1503 -206 
L 1606 56 
L 191 3500 
L 800 3500 
L 1894 763 
L 2988 3500 
L 3597 3500 
L 2059 -325 
z
" transform="scale(0.015625)"/>
      <path id="DejaVuSans-70" d="M 1159 525 
L 1159 -1331 
L 581 -1331 
L 581 3500 
L 1159 3500 
L 1159 2969 
Q 1341 3281 1617 3432 
Q 1894 3584 2278 3584 
Q 2916 3584 3314 3078 
Q 3713 2572 3713 1747 
Q 3713 922 3314 415 
Q 2916 -91 2278 -91 
Q 1894 -91 1617 61 
Q 1341 213 1159 525 
z
M 3116 1747 
Q 3116 2381 2855 2742 
Q 2594 3103 2138 3103 
Q 1681 3103 1420 2742 
Q 1159 2381 1159 1747 
Q 1159 1113 1420 752 
Q 1681 391 2138 391 
Q 2594 391 2855 752 
Q 3116 1113 3116 1747 
z
" transform="scale(0.015625)"/>
      <path id="DejaVuSans-76" d="M 191 3500 
L 800 3500 
L 1894 563 
L 2988 3500 
L 3597 3500 
L 2284 0 
L 1503 0 
L 191 3500 
z
" transform="scale(0.015625)"/>
      <path id="DejaVuSans-66" d="M 2375 4863 
L 2375 4384 
L 1825 4384 
Q 1516 4384 1395 4259 
Q 1275 4134 1275 3809 
L 1275 3500 
L 2222 3500 
L 2222 3053 
L 1275 3053 
L 1275 0 
L 697 0 
L 697 3053 
L 147 3053 
L 147 3500 
L 697 3500 
L 697 3744 
Q 697 4328 969 4595 
Q 1241 4863 1831 4863 
L 2375 4863 
z
" transform="scale(0.015625)"/>
      <path id="DejaVuSans-6e" d="M 3513 2113 
L 3513 0 
L 2938 0 
L 2938 2094 
Q 2938 2591 2744 2837 
Q 2550 3084 2163 3084 
Q 1697 3084 1428 2787 
Q 1159 2491 1159 1978 
L 1159 0 
L 581 0 
L 581 3500 
L 1159 3500 
L 1159 2956 
Q 1366 3272 1645 3428 
Q 1925 3584 2291 3584 
Q 2894 3584 3203 3211 
Q 3513 2838 3513 2113 
z
" transform="scale(0.015625)"/>
      <path id="DejaVuSans-50" d="M 1259 4147 
L 1259 2394 
L 2053 2394 
Q 2494 2394 2734 2622 
Q 2975 2850 2975 3272 
Q 2975 3691 2734 3919 
Q 2494 4147 2053 4147 
L 1259 4147 
z
M 628 4666 
L 2053 4666 
Q 2838 4666 3239 4311 
Q 3641 3956 3641 3272 
Q 3641 2581 3239 2228 
Q 2838 1875 2053 1875 
L 1259 1875 
L 1259 0 
L 628 0 
L 628 4666 
z
" transform="scale(0.015625)"/>
      <path id="DejaVuSans-31" d="M 794 531 
L 1825 531 
L 1825 4091 
L 703 3866 
L 703 4441 
L 1819 4666 
L 2450 4666 
L 2450 531 
L 3481 531 
L 3481 0 
L 794 0 
L 794 531 
z
" transform="scale(0.015625)"/>
      <path id="DejaVuSans-2013" d="M 313 1978 
L 2888 1978 
L 2888 1528 
L 313 1528 
L 313 1978 
z
" transform="scale(0.015625)"/>
      <path id="DejaVuSans-34" d="M 2419 4116 
L 825 1625 
L 2419 1625 
L 2419 4116 
z
M 2253 4666 
L 3047 4666 
L 3047 1625 
L 3713 1625 
L 3713 1100 
L 3047 1100 
L 3047 0 
L 2419 0 
L 2419 1100 
L 313 1100 
L 313 1709 
L 2253 4666 
z
" transform="scale(0.015625)"/>
      <path id="DejaVuSans-2d" d="M 313 2009 
L 1997 2009 
L 1997 1497 
L 313 1497 
L 313 2009 
z
" transform="scale(0.015625)"/>
      <path id="DejaVuSans-62" d="M 3116 1747 
Q 3116 2381 2855 2742 
Q 2594 3103 2138 3103 
Q 1681 3103 1420 2742 
Q 1159 2381 1159 1747 
Q 1159 1113 1420 752 
Q 1681 391 2138 391 
Q 2594 391 2855 752 
Q 3116 1113 3116 1747 
z
M 1159 2969 
Q 1341 3281 1617 3432 
Q 1894 3584 2278 3584 
Q 2916 3584 3314 3078 
Q 3713 2572 3713 1747 
Q 3713 922 3314 415 
Q 2916 -91 2278 -91 
Q 1894 -91 1617 61 
Q 1341 213 1159 525 
L 1159 0 
L 581 0 
L 581 4863 
L 1159 4863 
L 1159 2969 
z
" transform="scale(0.015625)"/>
      <path id="DejaVuSans-6b" d="M 581 4863 
L 1159 4863 
L 1159 1991 
L 2875 3500 
L 3609 3500 
L 1753 1863 
L 3688 0 
L 2938 0 
L 1159 1709 
L 1159 0 
L 581 0 
L 581 4863 
z
" transform="scale(0.015625)"/>
      <path id="DejaVuSans-35" d="M 691 4666 
L 3169 4666 
L 3169 4134 
L 1269 4134 
L 1269 2991 
Q 1406 3038 1543 3061 
Q 1681 3084 1819 3084 
Q 2600 3084 3056 2656 
Q 3513 2228 3513 1497 
Q 3513 744 3044 326 
Q 2575 -91 1722 -91 
Q 1428 -91 1123 -41 
Q 819 9 494 109 
L 494 744 
Q 775 591 1075 516 
Q 1375 441 1709 441 
Q 2250 441 2565 725 
Q 2881 1009 2881 1497 
Q 2881 1984 2565 2268 
Q 2250 2553 1709 2553 
Q 1456 2553 1204 2497 
Q 953 2441 691 2322 
L 691 4666 
z
" transform="scale(0.015625)"/>
      <path id="DejaVuSans-2e" d="M 684 794 
L 1344 794 
L 1344 0 
L 684 0 
L 684 794 
z
" transform="scale(0.015625)"/>
     </defs>
     <use xlink:href="#DejaVuSans-52"/>
     <use xlink:href="#DejaVuSans-75" transform="translate(64.982422 0)"/>
     <use xlink:href="#DejaVuSans-6c" transform="translate(128.361328 0)"/>
     <use xlink:href="#DejaVuSans-65" transform="translate(156.144531 0)"/>
     <use xlink:href="#DejaVuSans-20" transform="translate(217.667969 0)"/>
     <use xlink:href="#DejaVuSans-52" transform="translate(249.455078 0)"/>
     <use xlink:href="#DejaVuSans-20" transform="translate(318.9375 0)"/>
     <use xlink:href="#DejaVuSans-69" transform="translate(350.724609 0)"/>
     <use xlink:href="#DejaVuSans-73" transform="translate(378.507812 0)"/>
     <use xlink:href="#DejaVuSans-20" transform="translate(430.607422 0)"/>
     <use xlink:href="#DejaVuSans-73" transform="translate(462.394531 0)"/>
     <use xlink:href="#DejaVuSans-74" transform="translate(514.494141 0)"/>
     <use xlink:href="#DejaVuSans-72" transform="translate(553.703125 0)"/>
     <use xlink:href="#DejaVuSans-75" transform="translate(594.816406 0)"/>
     <use xlink:href="#DejaVuSans-63" transform="translate(658.195312 0)"/>
     <use xlink:href="#DejaVuSans-74" transform="translate(713.175781 0)"/>
     <use xlink:href="#DejaVuSans-75" transform="translate(752.384766 0)"/>
     <use xlink:href="#DejaVuSans-72" transform="translate(815.763672 0)"/>
     <use xlink:href="#DejaVuSans-61" transform="translate(856.876953 0)"/>
     <use xlink:href="#DejaVuSans-6c" transform="translate(918.15625 0)"/>
     <use xlink:href="#DejaVuSans-6c" transform="translate(945.939453 0)"/>
     <use xlink:href="#DejaVuSans-79" transform="translate(973.722656 0)"/>
     <use xlink:href="#DejaVuSans-20" transform="translate(1032.902344 0)"/>
     <use xlink:href="#DejaVuSans-70" transform="translate(1064.689453 0)"/>
     <use xlink:href="#DejaVuSans-72" transform="translate(1128.166016 0)"/>
     <use xlink:href="#DejaVuSans-65" transform="translate(1167.029297 0)"/>
     <use xlink:href="#DejaVuSans-73" transform="translate(1228.552734 0)"/>
     <use xlink:href="#DejaVuSans-65" transform="translate(1280.652344 0)"/>
     <use xlink:href="#DejaVuSans-72" transform="translate(1342.175781 0)"/>
     <use xlink:href="#DejaVuSans-76" transform="translate(1383.289062 0)"/>
     <use xlink:href="#DejaVuSans-65" transform="translate(1442.46875 0)"/>
     <use xlink:href="#DejaVuSans-64" transform="translate(1503.992188 0)"/>
     <use xlink:href="#DejaVuSans-20" transform="translate(1567.46875 0)"/>
     <use xlink:href="#DejaVuSans-61" transform="translate(1599.255859 0)"/>
     <use xlink:href="#DejaVuSans-73" transform="translate(1660.535156 0)"/>
     <use xlink:href="#DejaVuSans-20" transform="translate(1712.634766 0)"/>
     <use xlink:href="#DejaVuSans-74" transform="translate(1744.421875 0)"/>
     <use xlink:href="#DejaVuSans-68" transform="translate(1783.630859 0)"/>
     <use xlink:href="#DejaVuSans-65" transform="translate(1847.009766 0)"/>
     <use xlink:href="#DejaVuSans-20" transform="translate(1908.533203 0)"/>
     <use xlink:href="#DejaVuSans-73" transform="translate(1940.320312 0)"/>
     <use xlink:href="#DejaVuSans-61" transform="translate(1992.419922 0)"/>
     <use xlink:href="#DejaVuSans-66" transform="translate(2053.699219 0)"/>
     <use xlink:href="#DejaVuSans-65" transform="translate(2088.904297 0)"/>
     <use xlink:href="#DejaVuSans-74" transform="translate(2150.427734 0)"/>
     <use xlink:href="#DejaVuSans-79" transform="translate(2189.636719 0)"/>
     <use xlink:href="#DejaVuSans-20" transform="translate(2248.816406 0)"/>
     <use xlink:href="#DejaVuSans-66" transform="translate(2280.603516 0)"/>
     <use xlink:href="#DejaVuSans-6c" transform="translate(2315.808594 0)"/>
     <use xlink:href="#DejaVuSans-6f" transform="translate(2343.591797 0)"/>
     <use xlink:href="#DejaVuSans-6f" transform="translate(2404.773438 0)"/>
     <use xlink:href="#DejaVuSans-72" transform="translate(2465.955078 0)"/>
     <use xlink:href="#DejaVuSans-20" transform="translate(2507.068359 0)"/>
     <use xlink:href="#DejaVuSans-69" transform="translate(2538.855469 0)"/>
     <use xlink:href="#DejaVuSans-6e" transform="translate(2566.638672 0)"/>
     <use xlink:href="#DejaVuSans-20" transform="translate(2630.017578 0)"/>
     <use xlink:href="#DejaVuSans-50" transform="translate(2661.804688 0)"/>
     <use xlink:href="#DejaVuSans-31" transform="translate(2722.107422 0)"/>
     <use xlink:href="#DejaVuSans-2013" transform="translate(2785.730469 0)"/>
     <use xlink:href="#DejaVuSans-50" transform="translate(2835.730469 0)"/>
     <use xlink:href="#DejaVuSans-34" transform="translate(2896.033203 0)"/>
     <use xlink:href="#DejaVuSans-20" transform="translate(2959.65625 0)"/>
     <use xlink:href="#DejaVuSans-61" transform="translate(2991.443359 0)"/>
     <use xlink:href="#DejaVuSans-6e" transform="translate(3052.722656 0)"/>
     <use xlink:href="#DejaVuSans-64" transform="translate(3116.101562 0)"/>
     <use xlink:href="#DejaVuSans-20" transform="translate(3179.578125 0)"/>
     <use xlink:href="#DejaVuSans-61" transform="translate(3211.365234 0)"/>
     <use xlink:href="#DejaVuSans-73" transform="translate(3272.644531 0)"/>
     <use xlink:href="#DejaVuSans-20" transform="translate(3324.744141 0)"/>
     <use xlink:href="#DejaVuSans-74" transform="translate(3356.53125 0)"/>
     <use xlink:href="#DejaVuSans-68" transform="translate(3395.740234 0)"/>
     <use xlink:href="#DejaVuSans-65" transform="translate(3459.119141 0)"/>
     <use xlink:href="#DejaVuSans-20" transform="translate(3520.642578 0)"/>
     <use xlink:href="#DejaVuSans-63" transform="translate(3552.429688 0)"/>
     <use xlink:href="#DejaVuSans-69" transform="translate(3607.410156 0)"/>
     <use xlink:href="#DejaVuSans-72" transform="translate(3635.193359 0)"/>
     <use xlink:href="#DejaVuSans-63" transform="translate(3674.056641 0)"/>
     <use xlink:href="#DejaVuSans-75" transform="translate(3729.037109 0)"/>
     <use xlink:href="#DejaVuSans-69" transform="translate(3792.416016 0)"/>
     <use xlink:href="#DejaVuSans-74" transform="translate(3820.199219 0)"/>
     <use xlink:href="#DejaVuSans-2d" transform="translate(3859.408203 0)"/>
     <use xlink:href="#DejaVuSans-62" transform="translate(3895.492188 0)"/>
     <use xlink:href="#DejaVuSans-72" transform="translate(3958.96875 0)"/>
     <use xlink:href="#DejaVuSans-65" transform="translate(3997.832031 0)"/>
     <use xlink:href="#DejaVuSans-61" transform="translate(4059.355469 0)"/>
     <use xlink:href="#DejaVuSans-6b" transform="translate(4120.634766 0)"/>
     <use xlink:href="#DejaVuSans-65" transform="translate(4174.919922 0)"/>
     <use xlink:href="#DejaVuSans-72" transform="translate(4236.443359 0)"/>
     <use xlink:href="#DejaVuSans-20" transform="translate(4277.556641 0)"/>
     <use xlink:href="#DejaVuSans-74" transform="translate(4309.34375 0)"/>
     <use xlink:href="#DejaVuSans-61" transform="translate(4348.552734 0)"/>
     <use xlink:href="#DejaVuSans-72" transform="translate(4409.832031 0)"/>
     <use xlink:href="#DejaVuSans-67" transform="translate(4449.195312 0)"/>
     <use xlink:href="#DejaVuSans-65" transform="translate(4512.671875 0)"/>
     <use xlink:href="#DejaVuSans-74" transform="translate(4574.195312 0)"/>
     <use xlink:href="#DejaVuSans-20" transform="translate(4613.404297 0)"/>
     <use xlink:href="#DejaVuSans-69" transform="translate(4645.191406 0)"/>
     <use xlink:href="#DejaVuSans-6e" transform="translate(4672.974609 0)"/>
     <use xlink:href="#DejaVuSans-20" transform="translate(4736.353516 0)"/>
     <use xlink:href="#DejaVuSans-50" transform="translate(4768.140625 0)"/>
     <use xlink:href="#DejaVuSans-35" transform="translate(4828.443359 0)"/>
     <use xlink:href="#DejaVuSans-2e" transform="translate(4892.066406 0)"/>
    </g>
   </g>
   <g id="text_20">
    <!-- Figure 5. The graduated-autonomy lifecycle. Solid arrows = advance; dashed arrows = demote. -->
    <g transform="translate(98.7975 32.148) scale(0.11 -0.11)">
     <defs>
      <path id="DejaVuSans-46" d="M 628 4666 
L 3309 4666 
L 3309 4134 
L 1259 4134 
L 1259 2759 
L 3109 2759 
L 3109 2228 
L 1259 2228 
L 1259 0 
L 628 0 
L 628 4666 
z
" transform="scale(0.015625)"/>
      <path id="DejaVuSans-54" d="M -19 4666 
L 3928 4666 
L 3928 4134 
L 2272 4134 
L 2272 0 
L 1638 0 
L 1638 4134 
L -19 4134 
L -19 4666 
z
" transform="scale(0.015625)"/>
      <path id="DejaVuSans-53" d="M 3425 4513 
L 3425 3897 
Q 3066 4069 2747 4153 
Q 2428 4238 2131 4238 
Q 1616 4238 1336 4038 
Q 1056 3838 1056 3469 
Q 1056 3159 1242 3001 
Q 1428 2844 1947 2747 
L 2328 2669 
Q 3034 2534 3370 2195 
Q 3706 1856 3706 1288 
Q 3706 609 3251 259 
Q 2797 -91 1919 -91 
Q 1588 -91 1214 -16 
Q 841 59 441 206 
L 441 856 
Q 825 641 1194 531 
Q 1563 422 1919 422 
Q 2459 422 2753 634 
Q 3047 847 3047 1241 
Q 3047 1584 2836 1778 
Q 2625 1972 2144 2069 
L 1759 2144 
Q 1053 2284 737 2584 
Q 422 2884 422 3419 
Q 422 4038 858 4394 
Q 1294 4750 2059 4750 
Q 2388 4750 2728 4690 
Q 3069 4631 3425 4513 
z
" transform="scale(0.015625)"/>
      <path id="DejaVuSans-3d" d="M 678 2906 
L 4684 2906 
L 4684 2381 
L 678 2381 
L 678 2906 
z
M 678 1631 
L 4684 1631 
L 4684 1100 
L 678 1100 
L 678 1631 
z
" transform="scale(0.015625)"/>
      <path id="DejaVuSans-3b" d="M 750 3309 
L 1409 3309 
L 1409 2516 
L 750 2516 
L 750 3309 
z
M 750 794 
L 1409 794 
L 1409 256 
L 897 -744 
L 494 -744 
L 750 256 
L 750 794 
z
" transform="scale(0.015625)"/>
     </defs>
     <use xlink:href="#DejaVuSans-46"/>
     <use xlink:href="#DejaVuSans-69" transform="translate(50.269531 0)"/>
     <use xlink:href="#DejaVuSans-67" transform="translate(78.052734 0)"/>
     <use xlink:href="#DejaVuSans-75" transform="translate(141.529297 0)"/>
     <use xlink:href="#DejaVuSans-72" transform="translate(204.908203 0)"/>
     <use xlink:href="#DejaVuSans-65" transform="translate(243.771484 0)"/>
     <use xlink:href="#DejaVuSans-20" transform="translate(305.294922 0)"/>
     <use xlink:href="#DejaVuSans-35" transform="translate(337.082031 0)"/>
     <use xlink:href="#DejaVuSans-2e" transform="translate(400.705078 0)"/>
     <use xlink:href="#DejaVuSans-20" transform="translate(432.492188 0)"/>
     <use xlink:href="#DejaVuSans-54" transform="translate(464.279297 0)"/>
     <use xlink:href="#DejaVuSans-68" transform="translate(525.363281 0)"/>
     <use xlink:href="#DejaVuSans-65" transform="translate(588.742188 0)"/>
     <use xlink:href="#DejaVuSans-20" transform="translate(650.265625 0)"/>
     <use xlink:href="#DejaVuSans-67" transform="translate(682.052734 0)"/>
     <use xlink:href="#DejaVuSans-72" transform="translate(745.529297 0)"/>
     <use xlink:href="#DejaVuSans-61" transform="translate(786.642578 0)"/>
     <use xlink:href="#DejaVuSans-64" transform="translate(847.921875 0)"/>
     <use xlink:href="#DejaVuSans-75" transform="translate(911.398438 0)"/>
     <use xlink:href="#DejaVuSans-61" transform="translate(974.777344 0)"/>
     <use xlink:href="#DejaVuSans-74" transform="translate(1036.056641 0)"/>
     <use xlink:href="#DejaVuSans-65" transform="translate(1075.265625 0)"/>
     <use xlink:href="#DejaVuSans-64" transform="translate(1136.789062 0)"/>
     <use xlink:href="#DejaVuSans-2d" transform="translate(1200.265625 0)"/>
     <use xlink:href="#DejaVuSans-61" transform="translate(1236.349609 0)"/>
     <use xlink:href="#DejaVuSans-75" transform="translate(1297.628906 0)"/>
     <use xlink:href="#DejaVuSans-74" transform="translate(1361.007812 0)"/>
     <use xlink:href="#DejaVuSans-6f" transform="translate(1400.216797 0)"/>
     <use xlink:href="#DejaVuSans-6e" transform="translate(1461.398438 0)"/>
     <use xlink:href="#DejaVuSans-6f" transform="translate(1524.777344 0)"/>
     <use xlink:href="#DejaVuSans-6d" transform="translate(1585.958984 0)"/>
     <use xlink:href="#DejaVuSans-79" transform="translate(1683.371094 0)"/>
     <use xlink:href="#DejaVuSans-20" transform="translate(1742.550781 0)"/>
     <use xlink:href="#DejaVuSans-6c" transform="translate(1774.337891 0)"/>
     <use xlink:href="#DejaVuSans-69" transform="translate(1802.121094 0)"/>
     <use xlink:href="#DejaVuSans-66" transform="translate(1829.904297 0)"/>
     <use xlink:href="#DejaVuSans-65" transform="translate(1865.109375 0)"/>
     <use xlink:href="#DejaVuSans-63" transform="translate(1926.632812 0)"/>
     <use xlink:href="#DejaVuSans-79" transform="translate(1981.613281 0)"/>
     <use xlink:href="#DejaVuSans-63" transform="translate(2040.792969 0)"/>
     <use xlink:href="#DejaVuSans-6c" transform="translate(2095.773438 0)"/>
     <use xlink:href="#DejaVuSans-65" transform="translate(2123.556641 0)"/>
     <use xlink:href="#DejaVuSans-2e" transform="translate(2185.080078 0)"/>
     <use xlink:href="#DejaVuSans-20" transform="translate(2216.867188 0)"/>
     <use xlink:href="#DejaVuSans-53" transform="translate(2248.654297 0)"/>
     <use xlink:href="#DejaVuSans-6f" transform="translate(2312.130859 0)"/>
     <use xlink:href="#DejaVuSans-6c" transform="translate(2373.3125 0)"/>
     <use xlink:href="#DejaVuSans-69" transform="translate(2401.095703 0)"/>
     <use xlink:href="#DejaVuSans-64" transform="translate(2428.878906 0)"/>
     <use xlink:href="#DejaVuSans-20" transform="translate(2492.355469 0)"/>
     <use xlink:href="#DejaVuSans-61" transform="translate(2524.142578 0)"/>
     <use xlink:href="#DejaVuSans-72" transform="translate(2585.421875 0)"/>
     <use xlink:href="#DejaVuSans-72" transform="translate(2624.785156 0)"/>
     <use xlink:href="#DejaVuSans-6f" transform="translate(2663.648438 0)"/>
     <use xlink:href="#DejaVuSans-77" transform="translate(2724.830078 0)"/>
     <use xlink:href="#DejaVuSans-73" transform="translate(2806.617188 0)"/>
     <use xlink:href="#DejaVuSans-20" transform="translate(2858.716797 0)"/>
     <use xlink:href="#DejaVuSans-3d" transform="translate(2890.503906 0)"/>
     <use xlink:href="#DejaVuSans-20" transform="translate(2974.292969 0)"/>
     <use xlink:href="#DejaVuSans-61" transform="translate(3006.080078 0)"/>
     <use xlink:href="#DejaVuSans-64" transform="translate(3067.359375 0)"/>
     <use xlink:href="#DejaVuSans-76" transform="translate(3130.835938 0)"/>
     <use xlink:href="#DejaVuSans-61" transform="translate(3190.015625 0)"/>
     <use xlink:href="#DejaVuSans-6e" transform="translate(3251.294922 0)"/>
     <use xlink:href="#DejaVuSans-63" transform="translate(3314.673828 0)"/>
     <use xlink:href="#DejaVuSans-65" transform="translate(3369.654297 0)"/>
     <use xlink:href="#DejaVuSans-3b" transform="translate(3431.177734 0)"/>
     <use xlink:href="#DejaVuSans-20" transform="translate(3464.869141 0)"/>
     <use xlink:href="#DejaVuSans-64" transform="translate(3496.65625 0)"/>
     <use xlink:href="#DejaVuSans-61" transform="translate(3560.132812 0)"/>
     <use xlink:href="#DejaVuSans-73" transform="translate(3621.412109 0)"/>
     <use xlink:href="#DejaVuSans-68" transform="translate(3673.511719 0)"/>
     <use xlink:href="#DejaVuSans-65" transform="translate(3736.890625 0)"/>
     <use xlink:href="#DejaVuSans-64" transform="translate(3798.414062 0)"/>
     <use xlink:href="#DejaVuSans-20" transform="translate(3861.890625 0)"/>
     <use xlink:href="#DejaVuSans-61" transform="translate(3893.677734 0)"/>
     <use xlink:href="#DejaVuSans-72" transform="translate(3954.957031 0)"/>
     <use xlink:href="#DejaVuSans-72" transform="translate(3994.320312 0)"/>
     <use xlink:href="#DejaVuSans-6f" transform="translate(4033.183594 0)"/>
     <use xlink:href="#DejaVuSans-77" transform="translate(4094.365234 0)"/>
     <use xlink:href="#DejaVuSans-73" transform="translate(4176.152344 0)"/>
     <use xlink:href="#DejaVuSans-20" transform="translate(4228.251953 0)"/>
     <use xlink:href="#DejaVuSans-3d" transform="translate(4260.039062 0)"/>
     <use xlink:href="#DejaVuSans-20" transform="translate(4343.828125 0)"/>
     <use xlink:href="#DejaVuSans-64" transform="translate(4375.615234 0)"/>
     <use xlink:href="#DejaVuSans-65" transform="translate(4439.091797 0)"/>
     <use xlink:href="#DejaVuSans-6d" transform="translate(4500.615234 0)"/>
     <use xlink:href="#DejaVuSans-6f" transform="translate(4598.027344 0)"/>
     <use xlink:href="#DejaVuSans-74" transform="translate(4659.208984 0)"/>
     <use xlink:href="#DejaVuSans-65" transform="translate(4698.417969 0)"/>
     <use xlink:href="#DejaVuSans-2e" transform="translate(4759.941406 0)"/>
    </g>
   </g>
  </g>
 </g>
 <defs>
  <clipPath id="pc6c4b27720">
   <rect x="7.2" y="7.2" width="725.4" height="277.2"/>
  </clipPath>
 </defs>
</svg>
